<svg width="20" height="20" viewBox="0 0 20 20" fill="none" xmlns="http://www.w3.org/2000/svg">
<path d="M6.88164 9.25854H4.78711V11.3363H6.88164V9.25854Z" fill="#011368"/>
<path d="M11.0709 9.25854H8.97632V11.3363H11.0709V9.25854Z" fill="#011368"/>
<path d="M15.2598 9.25854H13.1653V11.3363H15.2598V9.25854Z" fill="#011368"/>
<path d="M6.88164 13.4141H4.78711V15.4918H6.88164V13.4141Z" fill="#011368"/>
<path d="M11.0709 13.4141H8.97632V15.4918H11.0709V13.4141Z" fill="#011368"/>
<path d="M15.2598 13.4141H13.1653V15.4918H15.2598V13.4141Z" fill="#011368"/>
<path d="M7.86398 3.31623H5.5271V1.51049C5.5271 1.22747 5.75838 0.998047 6.04367 0.998047H7.3474C7.6327 0.998047 7.86398 1.22747 7.86398 1.51049V3.31623Z" fill="#011368"/>
<path d="M14.6408 3.31623H12.304V1.51049C12.304 1.22747 12.5352 0.998047 12.8205 0.998047H14.1243C14.4096 0.998047 14.6408 1.22747 14.6408 1.51049V3.31623Z" fill="#011368"/>
<path d="M17.1 2.17576H14.9785V3.71614H11.8729V2.17576H8.20159V3.71614H5.09599V2.17576C4.17523 2.28445 1.8045 1.70459 1.84989 3.27478C1.81644 5.62146 1.87379 15.2411 1.84969 17.7677C1.84976 18.3746 2.34577 18.8667 2.95761 18.8667H17.1C17.7119 18.8667 18.2079 18.3746 18.2079 17.7677V6.81212V3.27474C18.2079 2.6678 17.7119 2.17576 17.1 2.17576ZM17.0341 17.7452H3.01287V6.84976H17.0341V17.7452Z" fill="#011368"/>
</svg>
