<svg width="20" height="20" viewBox="0 0 20 20" fill="none" xmlns="http://www.w3.org/2000/svg">
<path fill-rule="evenodd" clip-rule="evenodd" d="M9.5 0C4.25663 0 0 4.48067 0 10C0 15.5193 4.25663 20 9.5 20C14.7434 20 19 15.5193 19 10C19 4.48067 14.7434 0 9.5 0ZM10.1333 9.766C10.1333 8.73734 10.1333 4.66667 10.1333 4.66667C10.1333 4.29867 9.8496 4 9.5 4C9.1504 4 8.86667 4.29867 8.86667 4.66667V9.766C8.86667 10.0687 8.96484 10.3627 9.14407 10.5993C9.67417 11.296 11.5387 13.75 11.5387 13.75C11.7572 14.0373 12.1562 14.084 12.4292 13.854C12.7021 13.624 12.7465 13.204 12.528 12.9167L10.1333 9.766Z" fill="#011368"/>
</svg>
