<svg width="543" height="542" viewBox="0 0 543 542" fill="none" xmlns="http://www.w3.org/2000/svg">
<path d="M50.7801 121.087C22.2281 163.569 5.56152 214.75 5.56152 269.835C5.56152 417.001 124.522 536.303 271.266 536.303C418.011 536.303 536.971 417.001 536.971 269.835C536.971 193.291 504.79 124.285 453.256 75.6824" stroke="#E8ECFC" stroke-width="10.2716" stroke-linecap="round"/>
<path d="M328.474 15.023C332.849 7.92739 341.247 4.4561 349.205 6.93674C366.194 12.2325 397.03 23.4161 428.148 42.6214C459.266 61.8267 483.092 84.3791 495.445 97.1926C501.231 103.195 501.898 112.261 497.522 119.356C490.377 130.942 473.296 132.138 463.473 122.713C450.768 110.525 431.682 94.4292 405.982 78.5673C380.281 62.7054 357.339 52.8627 340.751 46.9719C327.924 42.4172 321.329 26.6093 328.474 15.023Z" fill="#E8ECFC"/>
<path d="M357.569 19.1141C359.721 19.7043 361.321 20.9188 362.368 22.7576C363.414 24.5965 363.643 26.5927 363.052 28.7462C362.462 30.8998 361.248 32.5004 359.41 33.5482C357.572 34.596 355.576 34.8248 353.424 34.2346L347.242 32.5394L344.793 41.4743L342.389 40.815L348.983 16.7597L357.569 19.1141ZM354.046 31.9665C355.534 32.3746 356.894 32.218 358.126 31.4965C359.387 30.7585 360.228 29.622 360.648 28.087C361.069 26.552 360.922 25.157 360.208 23.9019C359.522 22.6302 358.435 21.7903 356.947 21.3822L350.765 19.687L347.864 30.2713L354.046 31.9665Z" fill="#1A1A1E"/>
<path d="M374.347 31.4932C376.834 32.3661 378.528 33.9553 379.43 36.2609C380.362 38.5518 380.408 40.8965 379.566 43.2949C379.48 43.5415 379.336 43.881 379.133 44.3136L364.381 39.135C364.008 40.9172 364.249 42.525 365.105 43.9583C365.991 45.3771 367.33 46.401 369.122 47.0302C370.399 47.4784 371.587 47.606 372.687 47.4129C373.816 47.2052 374.766 46.7581 375.535 46.0715L377.083 47.8988C375.927 48.8273 374.588 49.4148 373.068 49.6614C371.547 49.908 369.969 49.7443 368.334 49.1702C365.69 48.2422 363.83 46.6579 362.755 44.4173C361.679 42.1766 361.589 39.7786 362.486 37.2234C363.367 34.7129 364.92 32.9042 367.145 31.7971C369.37 30.6901 371.771 30.5888 374.347 31.4932ZM373.592 33.645C371.845 33.0316 370.192 33.0432 368.635 33.6799C367.109 34.3021 365.942 35.4032 365.136 36.9832L377.671 41.3832C378.068 39.5338 377.868 37.9155 377.072 36.5281C376.275 35.1408 375.115 34.1798 373.592 33.645Z" fill="#1A1A1E"/>
<path d="M396.704 40.9778L389.737 57.3744L387.574 56.4546L393.649 42.1568L384.21 38.1435L378.134 52.4413L375.971 51.5215L382.938 35.125L396.704 40.9778Z" fill="#1A1A1E"/>
<path d="M406.623 45.4736C408.977 46.6594 410.453 48.4536 411.051 50.8561C411.681 53.248 411.425 55.5791 410.282 57.8493C410.165 58.0826 409.978 58.4008 409.722 58.8038L395.758 51.7693C395.158 53.4885 395.191 55.114 395.855 56.6456C396.552 58.1666 397.748 59.3545 399.444 60.2091C400.653 60.818 401.815 61.0975 402.93 61.0475C404.077 60.9869 405.076 60.6657 405.927 60.0838L407.227 62.0953C405.962 62.8672 404.559 63.2776 403.019 63.3264C401.479 63.3752 399.935 63.0097 398.387 62.2298C395.885 60.9693 394.245 59.1587 393.466 56.7982C392.687 54.4377 392.906 52.0481 394.124 49.6294C395.32 47.2532 397.093 45.6594 399.442 44.848C401.791 44.0366 404.185 44.2451 406.623 45.4736ZM405.598 47.5104C403.944 46.6772 402.304 46.476 400.678 46.907C399.084 47.3275 397.786 48.2693 396.783 49.7325L408.648 55.7094C409.279 53.9265 409.29 52.2959 408.678 50.8175C408.067 49.3392 407.04 48.2368 405.598 47.5104Z" fill="#1A1A1E"/>
<path d="M426.146 56.8835L424.998 58.8538L419.552 55.6788L411.733 69.1017L409.702 67.9178L417.521 54.4949L412.074 51.3199L413.222 49.3496L426.146 56.8835Z" fill="#1A1A1E"/>
<path d="M439.249 65.5924L440.907 66.7009L431.013 81.514L429.059 80.2075L436.677 68.8014L420.235 74.3085L418.577 73.2L428.471 58.3869L430.425 59.6933L422.807 71.0995L439.249 65.5924Z" fill="#1A1A1E"/>
<path d="M453.07 75.973L451.693 77.7898L446.671 73.9782L437.285 86.3551L435.413 84.9338L444.798 72.5569L439.776 68.7453L441.154 66.9285L453.07 75.973Z" fill="#1A1A1E"/>
<path d="M456.232 99.2351C453.702 99.3962 451.451 98.6201 449.479 96.9066C447.508 95.1931 446.416 93.0641 446.203 90.5196C446.024 87.9728 446.799 85.7041 448.527 83.7134C450.255 81.7228 452.385 80.6468 454.915 80.4857C457.478 80.3221 459.746 81.0971 461.717 82.8106C463.689 84.5241 464.765 86.6543 464.943 89.2011C465.156 91.7456 464.398 94.0131 462.67 96.0038C460.941 97.9944 458.796 99.0715 456.232 99.2351ZM448.541 90.3804C448.675 92.2905 449.486 93.892 450.974 95.1849C452.462 96.4778 454.16 97.0571 456.07 96.9228C457.994 96.7705 459.603 95.9502 460.895 94.4617C462.188 92.9731 462.767 91.2738 462.632 89.3637C462.514 87.4356 461.711 85.8252 460.223 84.5323C458.735 83.2394 457.029 82.669 455.104 82.8213C453.195 82.9556 451.594 83.767 450.302 85.2555C449.009 86.7441 448.423 88.4523 448.541 90.3804Z" fill="#1A1A1E"/>
<path d="M477.312 97.5609C479.101 99.366 479.981 101.537 479.953 104.073C479.942 106.626 479.009 108.822 477.154 110.662C475.299 112.502 473.096 113.416 470.544 113.405C468.009 113.41 465.847 112.511 464.059 110.705C461.836 108.462 461.075 105.838 461.777 102.834L454.239 110.31L452.585 108.64L470.289 91.08L471.944 92.7502L469.466 95.2085C472.474 94.533 475.089 95.3171 477.312 97.5609ZM463.484 104.001C463.475 105.916 464.165 107.573 465.552 108.974C466.94 110.374 468.59 111.078 470.504 111.086C472.435 111.078 474.1 110.38 475.499 108.992C476.899 107.604 477.603 105.952 477.611 104.038C477.637 102.106 476.955 100.44 475.568 99.0398C474.181 97.6396 472.522 96.9436 470.591 96.952C468.677 96.9436 467.021 97.6334 465.621 99.0215C464.221 100.409 463.509 102.069 463.484 104.001Z" fill="#1A1A1E"/>
</svg>
