<svg width="894" height="896" viewBox="0 0 894 896" fill="none" xmlns="http://www.w3.org/2000/svg">
<path d="M872.11 449.03C872.11 684.579 681.901 875.53 447.266 875.53C212.632 875.53 22.4229 684.579 22.4229 449.03C22.4229 213.48 212.632 22.5289 447.266 22.5289" stroke="#E8ECFC" stroke-width="10.2716" stroke-linecap="round"/>
<path d="M421.05 15.6734C424.839 7.47742 432.714 1.99052 441.742 1.96027C473.595 1.85353 553.62 6.19628 640.711 46.5162C727.802 86.8361 782.916 145.058 803.454 169.42C809.276 176.325 810.194 185.882 806.404 194.078C798.399 211.391 773.928 214.369 760.622 200.699C732.618 171.929 683.997 129.514 616.734 98.3735C549.47 67.233 485.687 57.6093 445.644 54.8762C426.618 53.5776 413.045 32.986 421.05 15.6734Z" fill="#E8ECFC"/>
<path d="M465.647 44.5806L463.436 38.4138L451.613 38.2123L449.195 44.3002L446.56 44.2553L456.561 19.4817L459.125 19.5254L468.282 44.6255L465.647 44.5806ZM452.543 35.8763L462.586 36.0475L457.791 22.6028L452.543 35.8763Z" fill="#1A1A1E"/>
<path d="M483.072 27.8238L485.418 27.9723L484.296 45.7514L481.95 45.6029L482.44 37.8512L472.202 37.2034L471.713 44.9551L469.367 44.8067L470.489 27.0275L472.835 27.176L472.346 34.9277L482.583 35.5755L483.072 27.8238Z" fill="#1A1A1E"/>
<path d="M499.361 29.3823L499.139 31.6517L490.136 30.7686L488.622 46.229L486.283 45.9995L488.018 28.2698L499.361 29.3823Z" fill="#1A1A1E"/>
<path d="M514.953 31.4645L512.608 49.1238L510.278 48.8138L512.323 33.4149L504.344 32.3534L503.298 40.2295C502.907 43.1727 502.073 45.1225 500.796 46.0788C499.543 47.0383 497.949 47.3174 496.014 46.9163L496.305 44.7265C497.628 45.0463 498.659 44.8599 499.397 44.1674C500.16 43.4781 500.683 42.0621 500.968 39.9195L502.314 29.783L514.953 31.4645Z" fill="#1A1A1E"/>
<path d="M529.839 34.0339L531.805 34.3723L528.787 51.9291L526.47 51.5302L528.794 38.0116L516.01 49.7294L514.045 49.391L517.062 31.8343L519.379 32.2331L517.055 45.7518L529.839 34.0339Z" fill="#1A1A1E"/>
<path d="M538.211 32.8364L538.646 30.8163L547.699 32.7685L547.264 34.7886L538.211 32.8364ZM547.499 37.7552L549.449 38.1757L545.699 55.5906L543.401 55.095L546.289 41.6856L533.026 52.8574L531.076 52.437L534.826 35.0221L537.124 35.5177L534.236 48.9271L547.499 37.7552Z" fill="#1A1A1E"/>
<path d="M555.778 58.6655C553.181 57.9909 551.245 56.5675 549.968 54.3955C548.698 52.2004 548.394 49.8269 549.056 47.2749C549.718 44.7229 551.134 42.8086 553.305 41.5321C555.482 40.2325 557.869 39.92 560.466 40.5947C562.167 41.0365 563.588 41.8473 564.729 43.0272C565.876 44.1841 566.581 45.5329 566.844 47.0736L564.705 47.6591C564.514 46.5051 563.978 45.4949 563.099 44.6284C562.249 43.745 561.18 43.1361 559.893 42.8018C557.986 42.3063 556.204 42.5551 554.548 43.5483C552.898 44.5185 551.826 45.9577 551.331 47.8659C550.836 49.7742 551.07 51.5652 552.034 53.2389C553.005 54.8897 554.443 55.9629 556.351 56.4584C557.638 56.7927 558.865 56.7923 560.031 56.4573C561.203 56.0992 562.211 55.4775 563.054 54.5922L564.663 56.1883C563.593 57.3826 562.264 58.2031 560.677 58.6495C559.089 59.096 557.456 59.1013 555.778 58.6655Z" fill="#1A1A1E"/>
<path d="M577.943 64.6628L574.941 63.7607L568.881 52.974L566.413 61.1978L564.162 60.5212L569.283 43.4594L571.534 44.136L569.271 51.6773L579.652 46.5758L582.722 47.4985L571.464 53.0433L577.943 64.6628Z" fill="#1A1A1E"/>
<path d="M595.922 52.0611L597.81 52.7067L592.051 69.5638L589.827 68.8029L594.261 55.823L579.784 65.3676L577.897 64.7221L583.655 47.865L585.879 48.6258L581.445 61.6058L595.922 52.0611Z" fill="#1A1A1E"/>
<path d="M604.078 52.0955L604.826 50.1693L613.458 53.5251L612.71 55.4513L604.078 52.0955ZM612.475 58.418L614.334 59.1408L607.887 75.7462L605.696 74.8944L610.66 62.1082L595.803 71.0481L593.944 70.3253L600.391 53.7199L602.582 54.5717L597.618 67.3579L612.475 58.418Z" fill="#1A1A1E"/>
<path d="M631.279 83.7986L633.541 84.8474L630.577 91.2484L628.444 90.2596L630.45 85.9276L617.265 79.8149L615.259 84.1469L613.126 83.1581L616.09 76.7571L618.061 77.671C619.829 76.7364 621.321 74.9544 622.539 72.325L626.236 64.3399L637.805 69.7035L631.279 83.7986ZM620.647 78.8695L629.146 82.8098L634.714 70.7837L627.411 67.3977L624.672 73.3138C623.524 75.7923 622.182 77.6442 620.647 78.8695Z" fill="#1A1A1E"/>
<path d="M654.777 78.3735L646.641 94.2194L644.55 93.1445L651.645 79.3269L644.485 75.6463L640.856 82.7136C639.5 85.3545 638.06 86.911 636.537 87.3828C635.034 87.8655 633.439 87.5929 631.751 86.565L632.76 84.6001C633.899 85.3458 634.932 85.5165 635.861 85.1125C636.81 84.7193 637.778 83.5613 638.765 81.6387L643.436 72.5432L654.777 78.3735Z" fill="#1A1A1E"/>
<path d="M669.108 86.5037L660.336 102.006L658.291 100.848L661.659 94.8946L658.994 93.3847L650.852 96.6339L648.249 95.159L656.549 91.918C655.415 91.0297 654.684 89.9335 654.358 88.6296C654.032 87.3256 654.22 86.0535 654.921 84.8133C655.717 83.4077 656.862 82.5414 658.356 82.2144C659.883 81.8784 661.37 82.1201 662.816 82.9395L669.108 86.5037ZM658.501 90.5669L662.747 92.9723L665.94 87.3292L661.694 84.9239C660.826 84.4322 659.936 84.2692 659.023 84.4348C658.132 84.6122 657.446 85.1246 656.967 85.9721C656.487 86.8195 656.401 87.6714 656.708 88.5276C657.035 89.3955 657.633 90.0753 658.501 90.5669Z" fill="#1A1A1E"/>
<path d="M682.256 104.943C683.517 106.59 683.593 108.285 682.484 110.029C681.707 111.251 680.653 112.002 679.322 112.281C678.024 112.553 676.613 112.204 675.091 111.235L667.788 106.587L677.345 91.5553L684.046 95.8207C685.508 96.7516 686.398 97.8528 686.715 99.1245C687.045 100.376 686.834 101.593 686.083 102.776C685.127 104.279 683.852 105.001 682.256 104.943ZM682.823 97.7447L678.105 94.7417L675.2 99.3113L679.918 102.314C681.661 103.424 683.029 103.197 684.023 101.633C684.469 100.932 684.582 100.244 684.364 99.5701C684.178 98.8888 683.664 98.2803 682.823 97.7447ZM676.314 109.311C677.195 109.872 678 110.088 678.729 109.961C679.477 109.846 680.093 109.408 680.578 108.646C681.024 107.945 681.134 107.241 680.908 106.534C680.714 105.82 680.177 105.182 679.296 104.621L673.977 101.235L670.995 105.925L676.314 109.311Z" fill="#1A1A1E"/>
<path d="M692.449 111.902C693.713 113.715 693.762 115.475 692.596 117.181C691.766 118.397 690.576 119.108 689.026 119.314C687.509 119.514 685.868 119.011 684.104 117.804C681.144 115.78 680.007 113.277 680.693 110.293L683.003 110.448C682.418 112.609 683.214 114.434 685.39 115.922C686.527 116.699 687.567 117.051 688.509 116.976C689.471 116.914 690.214 116.501 690.736 115.736C691.205 115.05 691.332 114.317 691.117 113.537C690.902 112.757 690.363 112.072 689.5 111.482L687.354 110.014L688.64 108.132L690.198 109.197C691.041 109.774 691.838 110.017 692.59 109.927C693.375 109.831 694.022 109.41 694.531 108.664C695.013 107.958 695.124 107.186 694.863 106.346C694.616 105.486 694.013 104.728 693.052 104.071C691.209 102.811 689.482 102.709 687.87 103.764L686.895 101.717C689.309 100.289 691.79 100.446 694.338 102.189C695.887 103.248 696.84 104.504 697.199 105.958C697.571 107.392 697.356 108.697 696.552 109.874C695.521 111.384 694.153 112.06 692.449 111.902Z" fill="#1A1A1E"/>
<path d="M710.595 113.927C712.628 115.451 713.816 117.47 714.159 119.984C714.52 122.511 713.918 124.82 712.351 126.911C710.785 129.001 708.739 130.227 706.213 130.589C703.706 130.965 701.436 130.39 699.403 128.865C696.876 126.97 695.741 124.485 695.996 121.411L689.631 129.907L687.75 128.496L702.702 108.54L704.583 109.951L702.49 112.745C705.367 111.637 708.069 112.031 710.595 113.927ZM697.855 122.316C698.127 124.212 699.051 125.751 700.627 126.934C702.204 128.117 703.94 128.572 705.835 128.301C707.743 128.011 709.289 127.077 710.471 125.5C711.652 123.923 712.108 122.186 711.837 120.29C711.58 118.376 710.663 116.827 709.086 115.644C707.509 114.462 705.766 114.015 703.858 114.305C701.963 114.576 700.425 115.501 699.243 117.078C698.061 118.656 697.598 120.402 697.855 122.316Z" fill="#1A1A1E"/>
<path d="M720.07 141.984C717.546 142.216 715.274 141.504 713.254 139.846C711.235 138.189 710.083 136.092 709.799 133.554C709.548 131.013 710.258 128.724 711.929 126.685C713.601 124.646 715.698 123.511 718.223 123.279C720.781 123.043 723.069 123.754 725.089 125.411C727.108 127.069 728.243 129.168 728.494 131.709C728.778 134.246 728.085 136.534 726.413 138.573C724.742 140.611 722.628 141.748 720.07 141.984ZM712.132 133.349C712.32 135.255 713.176 136.833 714.7 138.083C716.223 139.334 717.938 139.865 719.842 139.677C721.762 139.471 723.346 138.605 724.596 137.081C725.846 135.557 726.376 133.842 726.188 131.936C726.015 130.012 725.167 128.425 723.643 127.174C722.119 125.924 720.398 125.402 718.478 125.608C716.574 125.796 714.996 126.652 713.747 128.177C712.497 129.701 711.959 131.425 712.132 133.349Z" fill="#1A1A1E"/>
<path d="M727.918 152.559C725.919 150.768 724.851 148.614 724.713 146.099C724.591 143.565 725.409 141.316 727.168 139.353C728.926 137.389 731.063 136.338 733.577 136.2C736.108 136.045 738.372 136.863 740.37 138.654C741.679 139.827 742.569 141.2 743.042 142.772C743.531 144.327 743.539 145.849 743.066 147.338L740.897 146.877C741.256 145.764 741.244 144.621 740.86 143.447C740.51 142.272 739.839 141.24 738.849 140.353C737.381 139.037 735.684 138.44 733.757 138.563C731.846 138.667 730.233 139.454 728.918 140.922C727.604 142.391 726.991 144.09 727.08 146.019C727.185 147.931 727.971 149.545 729.439 150.861C730.429 151.749 731.519 152.312 732.709 152.549C733.915 152.769 735.095 152.679 736.25 152.279L736.949 154.436C735.45 155.006 733.893 155.125 732.277 154.793C730.662 154.461 729.209 153.717 727.918 152.559Z" fill="#1A1A1E"/>
<path d="M757.386 155.456L744.984 168.239L743.297 166.601L754.112 155.454L748.337 149.845L742.805 155.546C740.738 157.676 738.907 158.745 737.312 158.752C735.734 158.775 734.288 158.049 732.973 156.573L734.511 154.988C735.383 156.034 736.322 156.498 737.327 156.383C738.35 156.284 739.614 155.459 741.119 153.908L748.238 146.57L757.386 155.456Z" fill="#1A1A1E"/>
<path d="M759.563 167.628C760.704 168.837 761.286 170.215 761.309 171.761C761.365 173.309 760.806 174.637 759.632 175.746C758.458 176.855 757.092 177.345 755.534 177.216C754.009 177.088 752.677 176.419 751.536 175.21L746.573 169.95L759.52 157.72L761.134 159.43L756.214 164.078L759.563 167.628ZM770.278 169.121L771.891 170.832L758.943 183.061L757.33 181.351L770.278 169.121ZM753.193 173.645C753.877 174.37 754.672 174.779 755.576 174.873C756.497 174.983 757.311 174.704 758.019 174.036C758.726 173.367 759.052 172.57 758.994 171.644C758.953 170.736 758.59 169.918 757.906 169.193L754.556 165.643L749.844 170.095L753.193 173.645Z" fill="#1A1A1E"/>
<path d="M769.557 195.513L767.717 193.383L769.632 184.378L760.449 184.974L758.609 182.844L770.151 182.091L772.38 171.542L774.221 173.671L772.46 181.931L780.883 181.38L782.723 183.51L771.992 184.221L769.557 195.513Z" fill="#1A1A1E"/>
</svg>
