<svg width="975" height="1033" viewBox="0 0 975 1033" fill="none" xmlns="http://www.w3.org/2000/svg">
<path d="M287.289 35.2128C340.939 15.9985 398.739 5.53375 458.979 5.53375C740.656 5.53375 968.999 234.337 968.999 516.581C968.999 798.825 740.656 1027.63 458.979 1027.63C281.545 1027.63 125.272 936.838 33.9082 799.091" stroke="#E8ECFC" stroke-width="9.46754" stroke-linecap="round"/>
<path d="M7.67062 246.42C0.348316 237.209 -0.515305 224.499 6.25228 214.872C23.1207 190.876 60.0373 143.805 118.199 97.514C176.36 51.2228 230.502 25.8189 257.665 14.7706C268.562 10.338 280.746 14.0387 288.068 23.2489C300.335 38.6785 293.78 62.1744 275.901 70.4695C245.629 84.5144 200.734 108.57 155.568 144.518C110.402 180.466 76.8784 218.825 56.3923 245.179C44.2931 260.743 19.9376 261.849 7.67062 246.42Z" fill="#E8ECFC"/>
<path d="M50.3954 227.183L43.9829 225.432L36.9328 235.152L40.5848 240.709L39.0134 242.875L24.2456 220.129L25.7745 218.021L51.9668 225.016L50.3954 227.183ZM35.5327 233.018L41.521 224.762L27.5554 220.923L35.5327 233.018Z" fill="#1A1A1E"/>
<path d="M45.7189 203.735L47.1835 201.85L61.4528 212.95L59.9881 214.835L53.7667 209.995L47.3755 218.22L53.5969 223.06L52.1322 224.945L37.863 213.844L39.3277 211.96L45.549 216.799L51.9403 208.574L45.7189 203.735Z" fill="#1A1A1E"/>
<path d="M55.8129 191.391L57.6007 192.86L51.7723 199.961L63.952 209.97L62.4375 211.815L48.4699 200.337L55.8129 191.391Z" fill="#1A1A1E"/>
<path d="M66.7942 178.704L80.4493 190.553L78.8859 192.356L66.9787 182.025L61.6253 188.201L67.7155 193.486C69.9914 195.46 71.1781 197.256 71.2759 198.873C71.3894 200.472 70.7362 201.98 69.3162 203.398L67.623 201.928C68.6323 200.985 69.0498 200.006 68.8754 198.993C68.7167 197.961 67.809 196.727 66.1521 195.289L58.3141 188.488L66.7942 178.704Z" fill="#1A1A1E"/>
<path d="M77.4165 167.172L78.7885 165.682L92.0804 177.937L90.4634 179.693L80.2286 170.257L83.1624 187.62L81.7905 189.11L68.4985 176.856L70.1155 175.1L80.3503 184.536L77.4165 167.172Z" fill="#1A1A1E"/>
<path d="M79.7228 160.618L78.2234 159.151L84.7939 152.425L86.2934 153.891L79.7228 160.618ZM88.968 155.293L90.3832 153.844L103.309 166.485L101.641 168.192L91.6883 158.459L94.1104 175.902L92.6952 177.35L79.7693 164.71L81.4372 163.002L91.3902 172.736L88.968 155.293Z" fill="#1A1A1E"/>
<path d="M111.071 159.633C109.109 161.524 106.85 162.445 104.294 162.397C101.721 162.331 99.5074 161.335 97.6519 159.407C95.7964 157.479 94.8929 155.236 94.9414 152.679C94.9731 150.104 95.9699 147.872 97.9319 145.981C99.2167 144.743 100.672 143.944 102.298 143.582C103.908 143.203 105.448 143.309 106.92 143.899L106.291 146.062C105.192 145.615 104.034 145.542 102.818 145.843C101.603 146.11 100.509 146.712 99.5366 147.649C98.0956 149.037 97.365 150.712 97.3449 152.673C97.308 154.616 97.9833 156.309 99.3708 157.75C100.758 159.192 102.432 159.94 104.391 159.994C106.333 160.03 108.025 159.354 109.466 157.966C110.438 157.029 111.089 155.967 111.418 154.779C111.731 153.574 111.728 152.372 111.41 151.172L113.645 150.626C114.11 152.186 114.114 153.772 113.657 155.384C113.2 156.996 112.338 158.412 111.071 159.633Z" fill="#1A1A1E"/>
<path d="M127.351 144.013L124.999 146.157L112.45 145.8L118.316 152.246L116.551 153.853L104.382 140.481L106.147 138.874L111.525 144.784L112.509 133.077L114.915 130.885L113.859 143.587L127.351 144.013Z" fill="#1A1A1E"/>
<path d="M125.608 121.716L127.142 120.395L138.933 134.102L137.124 135.659L128.045 125.105L128.958 142.691L127.423 144.013L115.633 130.306L117.441 128.748L126.52 139.303L125.608 121.716Z" fill="#1A1A1E"/>
<path d="M129.179 115.042L127.859 113.412L135.163 107.491L136.483 109.121L129.179 115.042ZM138.978 110.822L140.551 109.547L151.93 123.598L150.076 125.101L141.314 114.282L141.705 131.888L140.132 133.163L128.753 119.112L130.607 117.609L139.368 128.428L138.978 110.822Z" fill="#1A1A1E"/>
<path d="M169.413 107.599L171.447 106.092L175.706 111.848L173.788 113.268L170.906 109.373L159.05 118.155L161.932 122.05L160.014 123.471L155.755 117.715L157.528 116.402C157.555 114.372 156.694 112.174 154.945 109.81L149.632 102.63L160.035 94.9242L169.413 107.599ZM159.853 114.68L167.495 109.019L159.494 98.2053L152.926 103.07L156.863 108.39C158.512 110.618 159.508 112.715 159.853 114.68Z" fill="#1A1A1E"/>
<path d="M175.52 84.149L185.813 99.0144L183.852 100.374L174.876 87.4114L168.16 92.0673L172.75 98.6973C174.466 101.175 175.171 103.209 174.865 104.8C174.579 106.377 173.572 107.676 171.845 108.697L170.569 106.854C171.781 106.19 172.427 105.345 172.509 104.32C172.611 103.282 172.038 101.861 170.789 100.057L164.881 91.5243L175.52 84.149Z" fill="#1A1A1E"/>
<path d="M187.719 76.1952L197.607 91.3334L195.609 92.6395L191.812 86.8265L189.209 88.5285L188.346 97.3893L185.803 99.0517L186.749 90.0512C185.419 90.6612 184.091 90.8097 182.764 90.4967C181.436 90.1837 180.377 89.4216 179.586 88.2106C178.689 86.8381 178.442 85.4012 178.843 83.9C179.252 82.3654 180.162 81.1363 181.575 80.2127L187.719 76.1952ZM186.44 87.6607L190.586 84.9494L186.987 79.4391L182.841 82.1504C181.993 82.7046 181.432 83.4318 181.156 84.3322C180.9 85.2195 181.043 86.0769 181.583 86.9044C182.124 87.732 182.852 88.2067 183.766 88.3287C184.701 88.4375 185.592 88.2148 186.44 87.6607Z" fill="#1A1A1E"/>
<path d="M217.026 76.8652L219.201 75.5709L222.859 81.7264L220.808 82.9466L218.332 78.7809L205.653 86.3244L208.129 90.4902L206.078 91.7105L202.42 85.5551L204.315 84.4273C204.547 82.41 203.911 80.1372 202.408 77.6087L197.845 69.93L208.97 63.3109L217.026 76.8652ZM206.801 82.9481L214.975 78.0855L208.102 66.5208L201.078 70.6993L204.459 76.3884C205.876 78.7718 206.657 80.9584 206.801 82.9481Z" fill="#1A1A1E"/>
<path d="M217.27 58.1702C219.611 56.8735 221.96 56.6612 224.316 57.5333C226.681 58.3726 228.488 59.9209 229.738 62.178C229.866 62.4101 230.026 62.7487 230.217 63.194L216.331 70.8867C217.429 72.3731 218.811 73.2755 220.475 73.5939C222.148 73.8796 223.828 73.5551 225.515 72.6205C226.717 71.9547 227.616 71.1396 228.212 70.1755C228.818 69.1786 229.12 68.1566 229.119 67.1097L231.549 67.1692C231.472 68.6727 231.013 70.0844 230.173 71.4042C229.333 72.7241 228.143 73.8104 226.604 74.6632C224.116 76.0417 221.66 76.3826 219.235 75.6861C216.811 74.9896 214.933 73.4389 213.603 71.0341C212.295 68.6715 211.973 66.2727 212.637 63.8378C213.301 61.4029 214.846 59.5137 217.27 58.1702ZM218.391 60.1953C216.746 61.1066 215.64 62.3675 215.071 63.9781C214.511 65.5559 214.558 67.1837 215.211 68.8616L227.009 62.3254C225.876 60.7757 224.515 59.8347 222.926 59.5023C221.337 59.17 219.825 59.401 218.391 60.1953Z" fill="#1A1A1E"/>
<path d="M239.4 46.9574L240.458 49.016L234.767 51.944L241.975 65.9682L239.852 67.06L232.645 53.0358L226.954 55.9639L225.896 53.9053L239.4 46.9574Z" fill="#1A1A1E"/>
<path d="M249.593 41.5537C252.009 40.4032 254.366 40.3354 256.664 41.3505C258.973 42.3335 260.682 43.9897 261.791 46.3193C261.905 46.5588 262.043 46.9066 262.207 47.3628L247.876 54.1886C248.881 55.7396 250.204 56.7251 251.845 57.1451C253.498 57.5329 255.195 57.3122 256.936 56.4829C258.176 55.8921 259.124 55.1338 259.778 54.2081C260.443 53.2502 260.808 52.2487 260.871 51.2037L263.293 51.4123C263.124 52.9082 262.579 54.2891 261.66 55.5549C260.74 56.8206 259.486 57.8319 257.898 58.5886C255.33 59.8117 252.857 60.0013 250.48 59.1573C248.103 58.3132 246.324 56.6502 245.143 54.1682C243.983 51.7298 243.809 49.3158 244.621 46.9262C245.433 44.5366 247.09 42.7458 249.593 41.5537ZM250.587 43.6438C248.89 44.4524 247.708 45.643 247.041 47.2156C246.386 48.7561 246.333 50.3838 246.881 52.0985L259.058 46.2989C258.022 44.6826 256.721 43.6598 255.156 43.2305C253.59 42.8012 252.067 42.939 250.587 43.6438Z" fill="#1A1A1E"/>
<path d="M259.92 34.0629L259.077 32.1421L267.685 28.361L268.527 30.2818L259.92 34.0629ZM270.484 32.5822L272.338 31.7678L279.604 48.3267L277.42 49.2865L271.825 36.5362L267.554 53.6202L265.7 54.4346L258.434 37.8758L260.619 36.916L266.214 49.6663L270.484 32.5822Z" fill="#1A1A1E"/>
<path d="M885.11 519.03C885.11 754.579 694.901 945.53 460.266 945.53C225.632 945.53 35.4229 754.579 35.4229 519.03C35.4229 283.48 225.632 92.5289 460.266 92.5289" stroke="#E8ECFC" stroke-width="10.2716" stroke-linecap="round"/>
<path d="M461.694 83.0422C466.184 75.2084 474.508 70.4299 483.504 71.1879C515.244 73.8623 594.586 85.1748 677.824 132.944C761.063 180.713 810.883 243.524 829.216 269.586C834.412 276.973 834.493 286.574 830.002 294.408C820.516 310.955 795.878 311.786 783.816 297.006C758.431 265.901 713.699 219.404 649.411 182.51C585.123 145.616 522.423 130.461 482.772 124.242C463.931 121.288 452.208 99.5898 461.694 83.0422Z" fill="#E8ECFC"/>
<path d="M503.597 115.732L501.933 109.396L490.173 108.163L487.232 114.017L484.611 113.742L496.737 89.9361L499.287 90.2034L506.218 116.007L503.597 115.732ZM491.303 105.917L501.292 106.965L497.689 93.1526L491.303 105.917Z" fill="#1A1A1E"/>
<path d="M522.418 100.561L524.742 100.914L522.072 118.527L519.748 118.174L520.912 110.495L510.771 108.956L509.607 116.635L507.283 116.282L509.953 98.6691L512.277 99.0218L511.113 106.701L521.254 108.24L522.418 100.561Z" fill="#1A1A1E"/>
<path d="M538.509 103.535L538.09 105.777L529.198 104.111L526.341 119.38L524.03 118.947L527.306 101.437L538.509 103.535Z" fill="#1A1A1E"/>
<path d="M553.86 106.971L549.982 124.358L547.688 123.846L551.069 108.684L543.213 106.93L541.484 114.685C540.837 117.583 539.837 119.452 538.481 120.293C537.149 121.14 535.537 121.279 533.644 120.71L534.125 118.554C535.415 118.988 536.458 118.893 537.254 118.267C538.074 117.647 538.719 116.282 539.189 114.173L541.415 104.192L553.86 106.971Z" fill="#1A1A1E"/>
<path d="M568.465 110.83L570.393 111.339L565.854 128.565L563.581 127.965L567.076 114.701L553.318 125.258L551.39 124.75L555.929 107.523L558.202 108.123L554.707 121.387L568.465 110.83Z" fill="#1A1A1E"/>
<path d="M576.909 110.368L577.519 108.393L586.366 111.129L585.757 113.103L576.909 110.368ZM585.732 116.079L587.638 116.668L582.382 133.689L580.136 132.995L584.183 119.888L569.996 129.86L568.09 129.271L573.346 112.25L575.592 112.944L571.545 126.05L585.732 116.079Z" fill="#1A1A1E"/>
<path d="M592.154 137.632C589.626 136.733 587.821 135.146 586.739 132.871C585.665 130.573 585.569 128.182 586.451 125.698C587.334 123.213 588.912 121.43 591.186 120.348C593.468 119.243 595.873 119.141 598.401 120.039C600.057 120.628 601.402 121.56 602.436 122.835C603.477 124.087 604.062 125.493 604.189 127.05L602.007 127.447C601.918 126.281 601.473 125.228 600.672 124.288C599.903 123.333 598.891 122.634 597.638 122.188C595.781 121.528 593.985 121.62 592.248 122.465C590.52 123.288 589.326 124.628 588.666 126.485C588.007 128.343 588.084 130.148 588.898 131.899C589.72 133.628 591.06 134.823 592.917 135.483C594.17 135.929 595.392 136.035 596.583 135.803C597.782 135.549 598.84 135.018 599.757 134.209L601.222 135.94C600.051 137.036 598.656 137.738 597.035 138.044C595.414 138.35 593.787 138.213 592.154 137.632Z" fill="#1A1A1E"/>
<path d="M613.711 145.541L610.8 144.381L605.705 133.106L602.528 141.083L600.344 140.213L606.935 123.663L609.119 124.533L606.206 131.848L616.993 127.673L619.971 128.86L608.271 133.401L613.711 145.541Z" fill="#1A1A1E"/>
<path d="M632.721 134.557L634.545 135.365L627.337 151.655L625.188 150.703L630.738 138.16L615.483 146.404L613.659 145.596L620.867 129.306L623.016 130.258L617.466 142.802L632.721 134.557Z" fill="#1A1A1E"/>
<path d="M640.843 135.304L641.757 133.45L650.062 137.547L649.149 139.4L640.843 135.304ZM648.656 142.335L650.445 143.217L642.573 159.197L640.464 158.157L646.526 145.853L630.945 153.462L629.156 152.579L637.028 136.6L639.137 137.64L633.075 149.944L648.656 142.335Z" fill="#1A1A1E"/>
<path d="M665.172 169.26L667.334 170.503L663.823 176.62L661.784 175.449L664.161 171.309L651.56 164.068L649.183 168.209L647.145 167.038L650.656 160.92L652.54 162.002C654.383 161.225 656.025 159.581 657.467 157.068L661.848 149.436L672.904 155.789L665.172 169.26ZM655.011 163.422L663.134 168.089L669.731 156.595L662.751 152.584L659.506 158.239C658.146 160.608 656.648 162.335 655.011 163.422Z" fill="#1A1A1E"/>
<path d="M689.054 165.907L679.566 180.982L677.577 179.729L685.851 166.584L679.04 162.292L674.808 169.016C673.226 171.528 671.656 172.953 670.097 173.29C668.558 173.64 666.993 173.229 665.401 172.057L666.578 170.188C667.647 171.03 668.662 171.291 669.622 170.969C670.602 170.66 671.668 169.591 672.819 167.762L678.265 159.109L689.054 165.907Z" fill="#1A1A1E"/>
<path d="M702.621 175.258L692.529 189.935L690.592 188.603L694.468 182.966L691.944 181.229L683.55 183.755L681.086 182.059L689.637 179.555C688.585 178.571 687.953 177.415 687.741 176.088C687.53 174.76 687.828 173.509 688.636 172.335C689.551 171.004 690.767 170.241 692.284 170.046C693.835 169.845 695.295 170.215 696.664 171.158L702.621 175.258ZM691.699 178.379L695.719 181.146L699.392 175.803L695.372 173.037C694.551 172.471 693.678 172.231 692.755 172.316C691.852 172.415 691.124 172.866 690.572 173.668C690.021 174.47 689.86 175.312 690.091 176.191C690.342 177.084 690.878 177.814 691.699 178.379Z" fill="#1A1A1E"/>
<path d="M714.109 194.775C715.221 196.525 715.149 198.221 713.893 199.861C713.012 201.011 711.896 201.667 710.546 201.828C709.229 201.985 707.854 201.515 706.422 200.417L699.553 195.149L710.385 181.009L716.689 185.843C718.064 186.898 718.854 188.073 719.059 189.367C719.279 190.643 718.962 191.837 718.11 192.949C717.027 194.363 715.693 194.972 714.109 194.775ZM715.302 187.653L710.864 184.25L707.571 188.548L712.009 191.952C713.649 193.209 715.031 193.102 716.158 191.632C716.664 190.972 716.837 190.297 716.678 189.606C716.552 188.911 716.093 188.26 715.302 187.653ZM707.808 198.607C708.637 199.243 709.42 199.529 710.157 199.465C710.913 199.416 711.565 199.033 712.114 198.317C712.619 197.657 712.79 196.965 712.627 196.241C712.497 195.513 712.017 194.831 711.188 194.195L706.185 190.358L702.805 194.77L707.808 198.607Z" fill="#1A1A1E"/>
<path d="M723.656 202.597C724.756 204.513 724.651 206.271 723.341 207.869C722.408 209.007 721.16 209.612 719.598 209.682C718.07 209.748 716.479 209.104 714.827 207.748C712.055 205.473 711.141 202.88 712.085 199.968L714.372 200.324C713.601 202.426 714.235 204.313 716.272 205.985C717.337 206.858 718.342 207.299 719.288 207.307C720.252 207.33 721.027 206.983 721.614 206.267C722.141 205.624 722.332 204.905 722.186 204.109C722.039 203.313 721.563 202.584 720.755 201.921L718.745 200.272L720.19 198.508L721.649 199.706C722.439 200.354 723.212 200.666 723.969 200.641C724.759 200.614 725.44 200.251 726.012 199.553C726.554 198.892 726.732 198.132 726.546 197.272C726.375 196.395 725.839 195.587 724.94 194.849C723.214 193.433 721.502 193.18 719.804 194.09L719.012 191.966C721.541 190.754 723.999 191.127 726.385 193.085C727.836 194.276 728.676 195.61 728.906 197.09C729.152 198.551 728.823 199.832 727.92 200.934C726.761 202.349 725.339 202.903 723.656 202.597Z" fill="#1A1A1E"/>
<path d="M741.556 206.198C743.448 207.894 744.455 210.009 744.577 212.543C744.716 215.092 743.915 217.34 742.172 219.286C740.429 221.232 738.284 222.274 735.736 222.414C733.205 222.569 730.994 221.799 729.102 220.102C726.751 217.994 725.836 215.419 726.359 212.38L719.277 220.287L717.526 218.718L734.163 200.143L735.914 201.712L733.584 204.313C736.547 203.461 739.205 204.089 741.556 206.198ZM728.132 213.443C728.237 215.355 729.023 216.969 730.491 218.285C731.958 219.601 733.648 220.207 735.559 220.102C737.485 219.98 739.106 219.184 740.421 217.716C741.737 216.248 742.342 214.558 742.237 212.646C742.148 210.716 741.37 209.093 739.903 207.777C738.435 206.461 736.738 205.864 734.811 205.987C732.9 206.091 731.287 206.878 729.972 208.346C728.657 209.815 728.044 211.514 728.132 213.443Z" fill="#1A1A1E"/>
<path d="M748.545 234.975C746.01 234.986 743.809 234.078 741.942 232.251C740.075 230.423 739.11 228.234 739.049 225.681C739.021 223.128 739.928 220.909 741.771 219.024C743.614 217.139 745.802 216.191 748.337 216.18C750.906 216.169 753.124 217.076 754.991 218.904C756.858 220.731 757.805 222.921 757.833 225.474C757.895 228.027 757.005 230.246 755.162 232.131C753.319 234.016 751.113 234.964 748.545 234.975ZM741.391 225.68C741.412 227.595 742.127 229.242 743.535 230.621C744.944 231.999 746.605 232.678 748.519 232.657C750.449 232.619 752.103 231.895 753.481 230.486C754.859 229.077 755.538 227.415 755.517 225.5C755.512 223.568 754.806 221.913 753.397 220.534C751.988 219.155 750.319 218.485 748.388 218.523C746.475 218.544 744.829 219.259 743.451 220.668C742.073 222.078 741.386 223.749 741.391 225.68Z" fill="#1A1A1E"/>
<path d="M755.44 246.195C753.605 244.236 752.729 241.998 752.812 239.479C752.911 236.945 753.922 234.776 755.846 232.974C757.769 231.171 759.989 230.311 762.506 230.393C765.04 230.459 767.224 231.471 769.058 233.43C770.26 234.713 771.027 236.159 771.361 237.766C771.712 239.357 771.587 240.874 770.986 242.317L768.865 241.668C769.32 240.59 769.408 239.45 769.128 238.248C768.882 237.046 768.304 235.96 767.395 234.99C766.048 233.551 764.409 232.808 762.479 232.762C760.566 232.699 758.891 233.342 757.453 234.69C756.014 236.038 755.256 237.677 755.176 239.607C755.113 241.521 755.756 243.197 757.103 244.636C758.012 245.607 759.049 246.263 760.214 246.603C761.396 246.928 762.579 246.941 763.765 246.644L764.272 248.854C762.729 249.291 761.168 249.273 759.588 248.801C758.007 248.33 756.625 247.461 755.44 246.195Z" fill="#1A1A1E"/>
<path d="M784.542 251.654L771.071 263.305L769.534 261.526L781.281 251.366L776.017 245.274L770.009 250.47C767.764 252.412 765.847 253.317 764.257 253.184C762.683 253.07 761.306 252.22 760.125 250.635L761.795 249.19C762.573 250.308 763.467 250.853 764.479 250.826C765.507 250.816 766.838 250.105 768.472 248.691L776.204 242.003L784.542 251.654Z" fill="#1A1A1E"/>
<path d="M785.649 263.969C786.68 265.273 787.139 266.696 787.026 268.239C786.947 269.786 786.275 271.06 785.009 272.062C783.742 273.064 782.339 273.433 780.798 273.168C779.29 272.908 778.021 272.125 776.99 270.821L772.505 265.148L786.471 254.095L787.929 255.94L782.622 260.14L785.649 263.969ZM796.192 266.392L797.65 268.237L783.684 279.289L782.226 277.445L796.192 266.392ZM778.777 269.406C779.396 270.189 780.151 270.666 781.044 270.838C781.952 271.029 782.787 270.822 783.55 270.218C784.314 269.613 784.707 268.848 784.731 267.92C784.77 267.011 784.479 266.166 783.861 265.383L780.834 261.555L775.751 265.578L778.777 269.406Z" fill="#1A1A1E"/>
<path d="M793.17 292.62L791.522 290.338L794.216 281.534L785.016 281.326L783.369 279.044L794.933 279.301L798.075 268.987L799.722 271.269L797.248 279.343L805.686 279.53L807.333 281.812L796.581 281.583L793.17 292.62Z" fill="#1A1A1E"/>
<path d="M460.266 857.387C646.248 857.387 797.015 705.899 797.015 519.03C797.015 332.16 646.248 180.672 460.266 180.672C274.285 180.672 123.518 332.16 123.518 519.03" stroke="#E8ECFC" stroke-width="10.2716" stroke-linecap="round"/>
<path d="M136.375 651.77C146.711 636.382 170.211 637.606 179.771 653.492C202.33 690.976 241.434 748.117 285.227 777.565C329.61 807.41 397.912 822.92 440.614 830.152C458.14 833.12 467.538 853.546 457.625 868.305C453.028 875.149 445.223 879.066 437.029 878.177C405.405 874.748 323.037 861.973 257.935 818.196C193.133 774.621 150.294 703.595 134.99 675.325C130.938 667.84 131.63 658.835 136.375 651.77Z" fill="#E8ECFC"/>
<path d="M154.449 685.607L158.833 680.741L153.417 670.225L146.912 670.973L145.704 668.629L172.252 665.725L173.426 668.006L155.656 687.951L154.449 685.607ZM155.914 669.939L160.514 678.872L170.085 668.285L155.914 669.939Z" fill="#1A1A1E"/>
<path d="M177.702 690.144L178.89 692.174L163.527 701.18L162.339 699.151L169.037 695.224L163.852 686.369L157.154 690.296L155.965 688.267L171.328 679.261L172.516 681.29L165.818 685.217L171.003 694.071L177.702 690.144Z" fill="#1A1A1E"/>
<path d="M187.036 704.696L185.125 705.939L180.196 698.35L167.177 706.817L165.896 704.845L180.825 695.136L187.036 704.696Z" fill="#1A1A1E"/>
<path d="M195.142 716.054L180.638 726.387L179.274 724.471L191.923 715.461L187.254 708.901L180.785 713.509C178.368 715.231 176.374 715.952 174.804 715.67C173.248 715.408 171.956 714.433 170.929 712.744L172.728 711.463C173.397 712.648 174.236 713.275 175.246 713.343C176.27 713.43 177.662 712.847 179.422 711.593L187.747 705.662L195.142 716.054Z" fill="#1A1A1E"/>
<path d="M205.359 729.002L206.601 730.563L192.671 741.66L191.207 739.82L201.933 731.276L184.596 731.513L183.354 729.951L197.284 718.855L198.748 720.695L188.022 729.239L205.359 729.002Z" fill="#1A1A1E"/>
<path d="M210.918 731.137L212.468 729.772L218.588 736.725L217.038 738.091L210.918 731.137ZM215.464 740.616L216.782 742.114L203.419 753.888L201.866 752.123L212.156 743.057L194.852 744.153L193.534 742.656L206.897 730.882L208.45 732.647L198.161 741.713L215.464 740.616Z" fill="#1A1A1E"/>
<path d="M211.412 762.783C209.535 760.865 208.609 758.647 208.635 756.127C208.678 753.591 209.64 751.4 211.523 749.555C213.405 747.71 215.606 746.801 218.124 746.827C220.659 746.836 222.865 747.8 224.742 749.718C225.972 750.973 226.772 752.401 227.141 754.001C227.528 755.584 227.437 757.103 226.868 758.559L224.733 757.957C225.164 756.87 225.226 755.728 224.92 754.532C224.647 753.337 224.045 752.264 223.114 751.313C221.735 749.905 220.08 749.199 218.15 749.196C216.236 749.176 214.575 749.856 213.168 751.235C211.76 752.615 211.038 754.271 211.001 756.202C210.982 758.117 211.661 759.779 213.04 761.187C213.971 762.137 215.022 762.77 216.194 763.084C217.383 763.382 218.567 763.369 219.745 763.046L220.302 765.244C218.769 765.715 217.208 765.732 215.617 765.296C214.027 764.859 212.625 764.022 211.412 762.783Z" fill="#1A1A1E"/>
<path d="M229.402 779.341L227.102 777.211L226.397 764.858L220.567 771.16L218.842 769.562L230.936 756.487L232.662 758.085L227.316 763.864L238.882 763.845L241.235 766.023L228.686 766.055L229.402 779.341Z" fill="#1A1A1E"/>
<path d="M251.802 774.868L253.33 776.151L241.886 789.8L240.086 788.288L248.897 777.778L231.955 781.463L230.427 780.181L241.871 766.532L243.671 768.043L234.86 778.553L251.802 774.868Z" fill="#1A1A1E"/>
<path d="M259.098 776.955L260.341 775.304L267.736 780.881L266.492 782.531L259.098 776.955ZM265.46 785.322L267.053 786.524L256.335 800.751L254.458 799.335L262.711 788.38L245.983 792.944L244.39 791.742L255.108 777.515L256.985 778.931L248.733 789.886L265.46 785.322Z" fill="#1A1A1E"/>
<path d="M279.046 813.034L281.148 814.376L277.353 820.322L275.372 819.057L277.94 815.032L265.693 807.208L263.125 811.233L261.144 809.967L264.939 804.021L266.77 805.19C268.646 804.501 270.364 802.935 271.923 800.492L276.657 793.074L287.402 799.94L279.046 813.034ZM269.171 806.725L277.065 811.768L284.195 800.596L277.411 796.262L273.904 801.758C272.434 804.06 270.857 805.716 269.171 806.725Z" fill="#1A1A1E"/>
<path d="M303.97 809.413L295.228 824.934L293.181 823.779L300.804 810.245L293.792 806.291L289.893 813.214C288.436 815.8 286.937 817.3 285.396 817.713C283.876 818.138 282.293 817.804 280.646 816.712L281.73 814.787C282.839 815.576 283.865 815.786 284.808 815.418C285.772 815.062 286.785 813.942 287.845 812.059L292.863 803.15L303.97 809.413Z" fill="#1A1A1E"/>
<path d="M317.545 816.238L309.55 832.157L307.45 831.101L310.52 824.988L307.783 823.612L299.813 827.261L297.14 825.918L305.269 822.269C304.092 821.438 303.309 820.379 302.919 819.093C302.528 817.807 302.653 816.527 303.292 815.253C304.017 813.81 305.118 812.888 306.595 812.487C308.103 812.076 309.6 812.243 311.085 812.99L317.545 816.238ZM307.152 820.822L311.511 823.014L314.421 817.22L310.062 815.028C309.171 814.58 308.274 814.461 307.371 814.672C306.489 814.893 305.83 815.439 305.393 816.309C304.956 817.179 304.911 818.035 305.26 818.874C305.63 819.725 306.261 820.374 307.152 820.822Z" fill="#1A1A1E"/>
<path d="M325.887 839.824C323.522 838.833 321.876 837.23 320.95 835.014C320.033 832.776 320.097 830.408 321.142 827.909C322.316 825.105 323.63 823.131 325.086 821.99C326.55 820.826 328.81 820.163 331.864 820C332.446 819.961 333.201 819.942 334.126 819.943C335.074 819.954 335.787 819.943 336.263 819.911C336.762 819.888 337.316 819.824 337.926 819.719C338.546 819.592 339.058 819.382 339.464 819.089C339.87 818.795 340.221 818.388 340.516 817.868L341.811 819.569C341.504 820.059 341.122 820.478 340.667 820.828C340.212 821.178 339.782 821.436 339.378 821.602C338.996 821.777 338.436 821.916 337.698 822.019C336.991 822.109 336.441 822.162 336.049 822.178C335.687 822.181 335.043 822.181 334.117 822.18C333.213 822.188 332.607 822.191 332.298 822.191C330.49 822.206 329.074 822.424 328.048 822.844C327.032 823.243 326.133 823.948 325.349 824.959C326.506 824.285 327.751 823.956 329.082 823.973C330.445 823.977 331.673 824.208 332.768 824.667C334.958 825.584 336.463 827.064 337.281 829.106C338.131 831.136 338.088 833.268 337.153 835.503C336.227 837.716 334.691 839.236 332.543 840.062C330.427 840.876 328.208 840.796 325.887 839.824ZM326.794 837.655C328.503 838.37 330.12 838.442 331.646 837.871C333.203 837.287 334.316 836.195 334.985 834.595C335.663 832.974 335.692 831.428 335.072 829.958C334.483 828.475 333.323 827.371 331.593 826.646C330.038 825.995 328.419 825.897 326.736 826.351C325.062 826.783 323.886 827.81 323.208 829.431C322.511 831.097 322.508 832.705 323.198 834.255C323.909 835.815 325.108 836.948 326.794 837.655Z" fill="#1A1A1E"/>
<path d="M353.461 830.79L355.338 831.466L349.307 848.229L347.096 847.433L351.739 834.525L337.11 843.837L335.234 843.161L341.264 826.397L343.476 827.194L338.832 840.102L353.461 830.79Z" fill="#1A1A1E"/>
<path d="M363.492 843.022C365.236 844.379 365.805 846.045 365.198 848.02C364.765 849.428 363.839 850.461 362.42 851.118C361.031 851.759 359.315 851.765 357.273 851.137C353.846 850.083 352.018 848.029 351.789 844.977L354.04 844.439C354.123 846.676 355.423 848.182 357.942 848.957C359.259 849.362 360.356 849.389 361.234 849.038C362.134 848.694 362.721 848.079 362.993 847.193C363.237 846.398 363.141 845.66 362.704 844.979C362.268 844.298 361.55 843.804 360.552 843.497L358.067 842.733L358.737 840.553L360.541 841.108C361.517 841.408 362.35 841.404 363.041 841.094C363.762 840.769 364.255 840.175 364.52 839.312C364.771 838.495 364.648 837.724 364.151 836.999C363.66 836.252 362.859 835.707 361.747 835.365C359.613 834.709 357.933 835.124 356.707 836.611L355.169 834.945C357.051 832.864 359.466 832.278 362.416 833.185C364.209 833.737 365.492 834.653 366.266 835.935C367.046 837.194 367.227 838.505 366.809 839.867C366.271 841.616 365.166 842.667 363.492 843.022Z" fill="#1A1A1E"/>
<path d="M383.331 839.396L385.608 839.981L381.185 857.239L378.908 856.655L380.837 849.13L370.902 846.581L368.973 854.105L366.696 853.521L371.12 836.263L373.396 836.847L371.468 844.372L381.403 846.921L383.331 839.396Z" fill="#1A1A1E"/>
<path d="M395.737 841.623C398.32 842.147 400.216 843.489 401.426 845.65C402.663 847.791 403.029 850.108 402.524 852.599C402.473 852.855 402.376 853.211 402.235 853.667L386.913 850.558C386.787 852.375 387.246 853.935 388.29 855.237C389.363 856.521 390.829 857.352 392.691 857.73C394.017 857.999 395.211 857.963 396.274 857.621C397.365 857.26 398.244 856.687 398.912 855.902L400.695 857.5C399.677 858.578 398.432 859.343 396.96 859.796C395.487 860.249 393.901 860.303 392.203 859.958C389.457 859.401 387.398 858.086 386.026 856.014C384.653 853.942 384.236 851.579 384.773 848.924C385.302 846.317 386.592 844.312 388.645 842.911C390.697 841.51 393.062 841.08 395.737 841.623ZM395.284 843.858C393.469 843.49 391.835 843.728 390.38 844.572C388.953 845.397 387.948 846.648 387.366 848.323L400.385 850.965C400.525 849.079 400.105 847.503 399.126 846.238C398.147 844.972 396.867 844.179 395.284 843.858Z" fill="#1A1A1E"/>
<path d="M411.754 863.271C409.1 862.882 407.021 861.677 405.517 859.656C404.016 857.612 403.457 855.285 403.839 852.676C404.22 850.067 405.421 848.01 407.441 846.505C409.464 844.977 411.803 844.407 414.457 844.796C416.196 845.05 417.696 845.702 418.958 846.751C420.224 847.777 421.071 849.042 421.499 850.545L419.436 851.359C419.121 850.232 418.479 849.286 417.512 848.52C416.571 847.734 415.443 847.245 414.127 847.052C412.177 846.767 410.433 847.207 408.895 848.375C407.36 849.518 406.45 851.066 406.164 853.017C405.879 854.967 406.306 856.723 407.445 858.282C408.588 859.818 410.135 860.729 412.085 861.014C413.4 861.207 414.619 861.073 415.742 860.614C416.869 860.13 417.803 859.403 418.545 858.431L420.318 859.843C419.384 861.147 418.151 862.107 416.622 862.723C415.092 863.339 413.469 863.522 411.754 863.271Z" fill="#1A1A1E"/>
<path d="M438.291 847.775L440.632 847.988L439.024 865.732L436.683 865.519L436.998 862.041C435.131 864.496 432.625 865.581 429.48 865.295C426.95 865.066 424.868 863.971 423.234 862.009C421.624 860.051 420.937 857.77 421.172 855.167C421.408 852.565 422.494 850.445 424.43 848.808C426.39 847.173 428.635 846.47 431.165 846.7C434.31 846.985 436.58 848.503 437.976 851.253L438.291 847.775ZM425.081 860.567C426.307 862.038 427.901 862.862 429.863 863.04C431.826 863.218 433.542 862.694 435.012 861.468C436.484 860.218 437.309 858.611 437.487 856.647C437.665 854.684 437.141 852.966 435.916 851.496C434.692 850.001 433.099 849.165 431.137 848.987C429.174 848.809 427.457 849.345 425.985 850.595C424.515 851.821 423.691 853.416 423.513 855.38C423.335 857.343 423.858 859.072 425.081 860.567Z" fill="#1A1A1E"/>
<path d="M239.78 371.087C211.228 413.569 194.562 464.75 194.562 519.835C194.562 667.001 313.522 786.303 460.266 786.303C607.011 786.303 725.971 667.001 725.971 519.835C725.971 443.291 693.79 374.285 642.256 325.682" stroke="#E8ECFC" stroke-width="10.2716" stroke-linecap="round"/>
<path d="M459.96 251.818C462.915 244.023 470.505 239.026 478.788 239.957C496.472 241.944 528.867 247.093 563.056 260.066C597.244 273.04 624.905 290.679 639.459 300.925C646.276 305.724 648.645 314.5 645.69 322.295C640.866 335.024 624.319 339.428 612.891 332.032C598.11 322.466 576.324 310.271 548.088 299.556C519.851 288.841 495.461 283.515 478.058 280.868C464.602 278.822 455.135 264.547 459.96 251.818Z" fill="#E8ECFC"/>
<path d="M489.304 250.332C491.529 250.505 493.329 251.395 494.705 253.003C496.081 254.61 496.683 256.527 496.51 258.754C496.338 260.98 495.448 262.781 493.841 264.158C492.235 265.534 490.319 266.136 488.094 265.964L481.702 265.469L480.987 274.705L478.502 274.513L480.427 249.644L489.304 250.332ZM488.275 263.619C489.814 263.738 491.12 263.327 492.193 262.386C493.291 261.423 493.902 260.148 494.025 258.561C494.148 256.974 493.739 255.632 492.8 254.535C491.887 253.416 490.661 252.796 489.122 252.677L482.731 252.182L481.884 263.124L488.275 263.619Z" fill="#1A1A1E"/>
<path d="M508.121 259.315C510.728 259.701 512.692 260.942 514.014 263.035C515.363 265.108 515.851 267.402 515.478 269.916C515.44 270.175 515.363 270.535 515.246 270.998L499.781 268.703C499.751 270.524 500.292 272.057 501.403 273.303C502.542 274.528 504.05 275.281 505.929 275.559C507.268 275.758 508.459 275.659 509.502 275.261C510.572 274.843 511.419 274.225 512.045 273.405L513.911 274.907C512.951 276.037 511.748 276.867 510.301 277.397C508.854 277.927 507.274 278.064 505.559 277.81C502.788 277.399 500.662 276.195 499.182 274.198C497.702 272.201 497.161 269.863 497.558 267.185C497.948 264.553 499.131 262.483 501.106 260.975C503.082 259.467 505.42 258.914 508.121 259.315ZM507.787 261.57C505.955 261.299 504.335 261.622 502.926 262.542C501.545 263.442 500.608 264.744 500.115 266.448L513.255 268.398C513.296 266.506 512.793 264.955 511.749 263.743C510.704 262.532 509.384 261.807 507.787 261.57Z" fill="#1A1A1E"/>
<path d="M531.868 264.4L528.128 281.818L525.83 281.324L529.092 266.135L519.064 263.98L515.802 279.168L513.504 278.674L517.244 261.256L531.868 264.4Z" fill="#1A1A1E"/>
<path d="M542.459 266.938C544.994 267.658 546.783 269.14 547.825 271.386C548.896 273.616 549.085 275.953 548.392 278.399C548.321 278.65 548.198 278.998 548.023 279.442L532.98 275.175C532.717 276.977 533.056 278.567 533.998 279.945C534.97 281.307 536.369 282.247 538.196 282.766C539.499 283.135 540.692 283.19 541.778 282.93C542.893 282.653 543.813 282.149 544.539 281.417L546.196 283.146C545.099 284.143 543.799 284.811 542.296 285.151C540.793 285.49 539.208 285.423 537.541 284.95C534.845 284.185 532.892 282.718 531.681 280.547C530.469 278.376 530.233 275.988 530.971 273.383C531.696 270.824 533.135 268.923 535.289 267.682C537.442 266.441 539.832 266.193 542.459 266.938ZM541.837 269.132C540.055 268.627 538.407 268.74 536.892 269.47C535.406 270.185 534.31 271.355 533.602 272.981L546.383 276.606C546.666 274.736 546.367 273.133 545.487 271.797C544.607 270.461 543.39 269.573 541.837 269.132Z" fill="#1A1A1E"/>
<path d="M563.787 274.45L563.033 276.602L557.085 274.514L551.946 289.173L549.728 288.395L554.866 273.736L548.918 271.648L549.672 269.496L563.787 274.45Z" fill="#1A1A1E"/>
<path d="M578.301 280.523L580.139 281.298L573.225 297.715L571.059 296.802L576.383 284.161L561.279 292.678L559.441 291.903L566.355 275.486L568.521 276.4L563.197 289.041L578.301 280.523Z" fill="#1A1A1E"/>
<path d="M593.836 288.103L592.826 290.147L587.174 287.354L580.299 301.283L578.191 300.241L585.066 286.313L579.414 283.52L580.423 281.475L593.836 288.103Z" fill="#1A1A1E"/>
<path d="M601.341 310.347C598.887 310.983 596.53 310.647 594.27 309.337C592.009 308.028 590.534 306.144 589.844 303.685C589.187 301.218 589.519 298.844 590.839 296.562C592.16 294.281 594.047 292.822 596.501 292.185C598.987 291.539 601.36 291.871 603.621 293.181C605.881 294.491 607.34 296.379 607.997 298.846C608.687 301.305 608.372 303.674 607.051 305.956C605.73 308.238 603.827 309.701 601.341 310.347ZM592.114 303.106C592.607 304.957 593.706 306.376 595.412 307.364C597.117 308.352 598.894 308.6 600.744 308.107C602.605 307.593 604.029 306.483 605.017 304.777C606.004 303.071 606.251 301.293 605.758 299.443C605.277 297.572 604.184 296.143 602.479 295.154C600.773 294.166 598.99 293.929 597.129 294.442C595.279 294.935 593.861 296.035 592.873 297.741C591.886 299.447 591.633 301.236 592.114 303.106Z" fill="#1A1A1E"/>
<path d="M621.724 304.716C623.822 306.15 625.097 308.115 625.549 310.611C626.021 313.12 625.52 315.453 624.047 317.61C622.573 319.767 620.583 321.082 618.075 321.554C615.587 322.039 613.294 321.564 611.196 320.13C608.589 318.347 607.345 315.914 607.466 312.832L601.479 321.598L599.538 320.271L613.602 299.68L615.543 301.007L613.574 303.89C616.4 302.658 619.117 302.933 621.724 304.716ZM609.363 313.655C609.717 315.537 610.708 317.034 612.335 318.147C613.962 319.259 615.716 319.639 617.597 319.285C619.491 318.911 620.994 317.911 622.106 316.283C623.218 314.656 623.597 312.901 623.243 311.019C622.902 309.117 621.918 307.61 620.291 306.498C618.664 305.385 616.903 305.016 615.009 305.389C613.128 305.743 611.632 306.733 610.52 308.361C609.408 309.989 609.023 311.753 609.363 313.655Z" fill="#1A1A1E"/>
</svg>
