<svg width="25" height="25" viewBox="0 0 25 25" fill="none" xmlns="http://www.w3.org/2000/svg">
<path d="M6.79997 3.6208C6.99997 3.6208 7.19997 3.6208 7.42497 3.6208C7.84997 3.6208 8.14997 3.472 8.37497 3.1248C8.59997 2.7776 8.82497 2.4304 9.04997 2.108C9.52497 1.4136 10.275 1.24 11 1.6616C11.375 1.86 11.75 2.0832 12.125 2.2816C12.425 2.4552 12.725 2.4304 13.05 2.2816C13.425 2.0832 13.775 1.86 14.15 1.6616C14.9 1.24 15.625 1.4136 16.1 2.108C16.325 2.4552 16.55 2.7776 16.775 3.1248C17 3.472 17.275 3.6456 17.7 3.6208C18.125 3.596 18.55 3.596 18.975 3.5712C19.775 3.5712 20.375 4.1416 20.425 4.9352C20.45 5.332 20.5 5.7536 20.525 6.1504C20.575 6.5472 20.75 6.82 21.125 6.9688C21.5 7.1424 21.875 7.316 22.25 7.5144C22.975 7.8864 23.225 8.6056 22.925 9.3248C22.775 9.7216 22.6 10.1184 22.425 10.5152C22.275 10.8624 22.325 11.16 22.525 11.4576C22.775 11.78 23.025 12.1272 23.275 12.4744C23.775 13.144 23.7 13.9128 23.05 14.4584C22.75 14.7064 22.45 14.9792 22.15 15.2024C21.775 15.4752 21.65 15.8224 21.75 16.2688C21.825 16.6904 21.9 17.112 21.925 17.5336C22 18.3024 21.55 18.9224 20.775 19.0712C20.4 19.1456 20.025 19.2448 19.65 19.3192C19.225 19.3936 18.95 19.6168 18.825 20.0384C18.7 20.4352 18.55 20.832 18.425 21.204C18.175 21.9232 17.5 22.2704 16.75 22.0968C16.325 21.9976 15.925 21.8736 15.525 21.7496C15.125 21.6256 14.775 21.7 14.475 22.0224C14.175 22.32 13.875 22.5928 13.575 22.8656C12.975 23.4112 12.225 23.4112 11.625 22.8656C11.325 22.5928 11 22.2952 10.7 22.0224C10.425 21.7496 10.1 21.6504 9.69997 21.7744C9.27497 21.8984 8.87497 22.0224 8.44997 22.1216C7.67497 22.32 6.99997 21.9232 6.74997 21.1792C6.62497 20.7824 6.47497 20.4104 6.34997 20.0136C6.22497 19.6168 5.97497 19.3936 5.57497 19.3192C5.17497 19.2448 4.77497 19.1456 4.37497 19.0712C3.62497 18.9224 3.17497 18.3024 3.24997 17.5584C3.29997 17.1368 3.37497 16.7152 3.42497 16.2688C3.49997 15.8472 3.39997 15.5 3.04997 15.2272C2.72497 14.9792 2.42497 14.7064 2.09997 14.4336C1.49997 13.9128 1.39997 13.144 1.84997 12.4744C2.09997 12.1272 2.34997 11.8048 2.59997 11.4824C2.82497 11.1848 2.87497 10.8624 2.72497 10.4904C2.54997 10.0936 2.39997 9.672 2.22497 9.2752C1.94997 8.6056 2.19997 7.8864 2.82497 7.5144C3.22497 7.2912 3.62497 7.1176 4.04997 6.9192C4.42497 6.7456 4.62497 6.4728 4.64997 6.076C4.69997 5.6544 4.72497 5.2576 4.74997 4.836C4.79997 4.092 5.39997 3.5216 6.14997 3.5216C6.37497 3.5216 6.59997 3.5216 6.84997 3.5216C6.79997 3.5712 6.79997 3.596 6.79997 3.6208ZM19.725 12.3504C19.725 8.3576 16.45 5.1584 12.425 5.208C8.47497 5.2824 5.29997 8.5312 5.34997 12.4C5.39997 16.3928 8.67497 19.5672 12.675 19.4928C16.625 19.4184 19.725 16.1944 19.725 12.3504Z" fill="#011368"/>
<path d="M12.5752 6.10083C16.0252 6.12563 18.8002 8.87843 18.8252 12.276C18.8502 15.8968 16.0252 18.6744 12.3752 18.6C8.97517 18.5504 6.22517 15.748 6.25017 12.3256C6.25017 8.87843 9.07517 6.10083 12.5752 6.10083ZM11.6252 13.0944C11.0752 12.5984 10.5502 12.1272 10.0002 11.6808C9.40017 11.16 9.27517 11.1848 8.72517 11.7304C8.45017 12.0032 8.40017 12.2016 8.62517 12.524C8.90017 12.9456 9.22517 13.3424 9.55017 13.7392C10.1502 14.4832 10.7252 15.252 11.3252 15.996C11.5252 16.244 11.8002 16.244 12.0002 15.996C12.0502 15.9216 12.1002 15.872 12.1502 15.7976C13.5502 13.8632 14.9502 11.9288 16.3502 9.99443C16.4002 9.92003 16.4752 9.82083 16.5252 9.72163C16.6502 9.47363 16.6252 9.30003 16.4252 9.12643C16.2752 9.00243 16.1252 8.87843 15.9502 8.77923C15.7502 8.63043 15.5752 8.65523 15.4252 8.82883C15.2002 9.07683 14.9502 9.34963 14.7252 9.62243C13.6502 10.7632 12.6502 11.904 11.6252 13.0944Z" fill="#011368"/>
</svg>
