<svg width="25" height="25" viewBox="0 0 25 25" fill="none" xmlns="http://www.w3.org/2000/svg">
<path d="M22.892 11.8327C22.6418 11.7776 22.3811 11.7922 22.1387 11.8747C21.6779 10.1983 20.7105 8.70281 19.367 7.59038C19.2921 7.19096 19.2974 6.78079 19.3823 6.38338C19.4673 5.98597 19.6304 5.60914 19.8622 5.27446C19.923 5.1737 19.9538 5.05783 19.951 4.94034C19.9481 4.82286 19.9117 4.70859 19.8461 4.61085C19.7804 4.51311 19.6882 4.43591 19.5801 4.38823C19.472 4.34056 19.3525 4.32438 19.2355 4.34157C17.6514 4.54447 16.7431 5.27446 16.2338 5.94148C15.6389 5.77483 15.0274 5.67317 14.4103 5.63829C14.3993 5.63726 14.3883 5.63726 14.3774 5.63829C14.9231 7.13716 14.9765 8.76937 14.5298 10.3003C14.0832 11.8312 13.1596 13.1819 11.8917 14.1583C10.6239 15.1346 9.07714 15.6863 7.47388 15.734C5.87062 15.7818 4.29343 15.323 2.96906 14.4238C2.95864 14.4498 2.95384 14.4776 2.95498 14.5055C3.00738 15.6314 3.28557 16.7356 3.77322 17.7533C4.26087 18.7709 4.94816 19.6816 5.79475 20.4317C6.08565 20.6825 6.31973 20.9918 6.48155 21.3392C6.64337 21.6865 6.72924 22.064 6.73352 22.4467V23.4449C6.73352 23.5921 6.79236 23.7333 6.89712 23.8374C7.00187 23.9415 7.14394 24 7.29208 24H10.6881C10.8362 24 10.9783 23.9415 11.083 23.8374C11.1878 23.7333 11.2466 23.5921 11.2466 23.4449V22.5843H11.4813H13.9456V23.4403C13.9456 23.5875 14.0044 23.7287 14.1092 23.8328C14.2139 23.9369 14.356 23.9953 14.5042 23.9953H17.9119C18.06 23.9953 18.2021 23.9369 18.3068 23.8328C18.4116 23.7287 18.4704 23.5875 18.4704 23.4403V22.68C18.4676 22.2825 18.5513 21.8891 18.7158 21.5268C18.8802 21.1645 19.1216 20.8419 19.4233 20.5809C20.7464 19.4655 21.6961 17.9759 22.1457 16.3106C22.3885 16.3917 22.649 16.4054 22.8991 16.3503C23.2174 16.2717 23.4995 16.0883 23.6994 15.8299C23.8993 15.5715 24.0052 15.2535 23.9998 14.9276V13.2624C24.0056 12.9346 23.8991 12.6145 23.6978 12.3548C23.4966 12.095 23.2124 11.9109 22.892 11.8327ZM18.7122 11.9796C18.5455 11.9796 18.3826 11.9305 18.2441 11.8385C18.1055 11.7465 17.9975 11.6158 17.9338 11.4628C17.87 11.3098 17.8533 11.1414 17.8858 10.979C17.9183 10.8166 17.9986 10.6674 18.1164 10.5503C18.2342 10.4332 18.3844 10.3535 18.5478 10.3212C18.7112 10.2889 18.8806 10.3055 19.0346 10.3688C19.1886 10.4322 19.3201 10.5395 19.4127 10.6772C19.5053 10.8149 19.5547 10.9768 19.5547 11.1424C19.5553 11.2527 19.534 11.3621 19.4919 11.4642C19.4499 11.5663 19.3879 11.6592 19.3096 11.7374C19.2313 11.8157 19.1382 11.8778 19.0357 11.9201C18.9332 11.9625 18.8232 11.9843 18.7122 11.9843V11.9796ZM7.2381 14.3982C8.47178 14.3982 9.67776 14.0347 10.7036 13.3536C11.7294 12.6725 12.5289 11.7045 13.0011 10.5719C13.4733 9.43932 13.597 8.19301 13.3565 6.99057C13.116 5.78812 12.5221 4.68355 11.6499 3.8165C10.7778 2.94945 9.66645 2.35886 8.45653 2.1194C7.24661 1.87994 5.99241 2.00237 4.85251 2.47121C3.7126 2.94005 2.73818 3.73424 2.05245 4.75337C1.36672 5.77249 1.00046 6.97079 1 8.19676C1.00124 9.84069 1.65879 11.417 2.82833 12.5796C3.99786 13.7423 5.58382 14.3963 7.2381 14.3982ZM6.71943 5.03658V4.57013C6.71943 4.5052 6.7323 4.4409 6.75731 4.38092C6.78231 4.32093 6.81896 4.26642 6.86516 4.22051C6.91136 4.1746 6.96621 4.13818 7.02658 4.11333C7.08694 4.08848 7.15164 4.07569 7.21698 4.07569C7.28232 4.07569 7.34702 4.08848 7.40738 4.11333C7.46775 4.13818 7.5226 4.1746 7.5688 4.22051C7.615 4.26642 7.65165 4.32093 7.67665 4.38092C7.70166 4.4409 7.71453 4.5052 7.71453 4.57013V4.96428C8.03139 4.9744 8.34619 5.01898 8.65329 5.09721C8.79027 5.13465 8.90902 5.22002 8.98766 5.33759C9.0663 5.45516 9.09954 5.59701 9.08125 5.73701C9.06296 5.87701 8.99438 6.00572 8.88813 6.09944C8.78189 6.19316 8.64514 6.24557 8.50309 6.24701C8.44826 6.24701 8.39372 6.23915 8.34115 6.22369C8.04942 6.13761 7.7466 6.0944 7.44228 6.09541C6.7828 6.09541 6.56923 6.37761 6.56923 6.65981C6.56923 6.99332 6.92596 7.20556 7.78728 7.52741C8.99594 7.95187 9.4841 8.50695 9.4841 9.41652C9.4841 10.3261 8.84339 11.0817 7.67463 11.2823V11.8327C7.67463 11.9638 7.62221 12.0896 7.5289 12.1823C7.43559 12.2751 7.30904 12.3272 7.17708 12.3272C7.04512 12.3272 6.91857 12.2751 6.82526 12.1823C6.73196 12.0896 6.67954 11.9638 6.67954 11.8327V11.3663C6.26413 11.3426 5.85374 11.2642 5.45914 11.133C5.31703 11.0873 5.19773 10.9895 5.1254 10.8596C5.05306 10.7297 5.0331 10.5774 5.06955 10.4334L5.08129 10.3844C5.11531 10.2635 5.18846 10.1571 5.28942 10.0816C5.39038 10.0062 5.51353 9.96587 5.63985 9.96693C5.70614 9.96714 5.77195 9.97817 5.83465 9.99958C6.18803 10.1211 6.55908 10.1841 6.933 10.1862C7.51269 10.1862 7.90932 9.95293 7.90932 9.56112C7.90932 9.1693 7.5831 8.93608 6.83209 8.68186C5.74546 8.31803 5.00384 7.81427 5.00384 6.83473C5.00384 5.94615 5.63281 5.24881 6.71943 5.03658Z" fill="#011368"/>
</svg>
