<svg width="722" height="722" viewBox="0 0 722 722" fill="none" xmlns="http://www.w3.org/2000/svg">
<path d="M361.266 699.387C547.248 699.387 698.015 547.899 698.015 361.03C698.015 174.16 547.248 22.6723 361.266 22.6723C175.285 22.6723 24.5176 174.16 24.5176 361.03" stroke="#E8ECFC" stroke-width="10.2716" stroke-linecap="round"/>
<path d="M47.1279 539.648C55.1367 522.931 78.5676 520.752 90.3189 535.093C118.048 568.933 164.983 619.837 212.565 642.662C260.788 665.794 330.613 671.292 373.911 672.291C391.682 672.701 403.928 691.557 396.246 707.592C392.684 715.027 385.526 720.029 377.289 720.331C345.501 721.498 262.153 720.735 191.418 686.804C121.009 653.03 68.3757 588.924 49.1547 563.157C44.0652 556.334 43.4512 547.323 47.1279 539.648Z" fill="#E8ECFC"/>
<path d="M69.8925 570.525L73.5292 565.078L66.6531 555.452L60.3239 557.131L58.7913 554.985L84.6422 548.283L86.1334 550.371L71.4251 572.671L69.8925 570.525ZM69.083 554.81L74.9235 562.985L82.8673 551.129L69.083 554.81Z" fill="#1A1A1E"/>
<path d="M93.5571 571.661L95.0257 573.498L81.1225 584.626L79.6539 582.789L85.7157 577.938L79.3076 569.923L73.2458 574.775L71.7772 572.938L85.6804 561.811L87.149 563.647L81.0872 568.499L87.4953 576.513L93.5571 571.661Z" fill="#1A1A1E"/>
<path d="M104.893 584.715L103.181 586.22L97.208 579.422L85.5469 589.677L83.9949 587.91L97.3677 576.15L104.893 584.715Z" fill="#1A1A1E"/>
<path d="M114.552 594.785L101.689 607.102L100.064 605.403L111.28 594.663L105.715 588.844L99.9778 594.337C97.8339 596.39 95.9649 597.39 94.3708 597.338C92.7931 597.303 91.3743 596.524 90.1146 595.001L91.7096 593.474C92.5425 594.551 93.4636 595.05 94.4728 594.972C95.4985 594.91 96.7917 594.132 98.3524 592.638L105.736 585.568L114.552 594.785Z" fill="#1A1A1E"/>
<path d="M126.528 606.124L127.983 607.49L115.799 620.48L114.085 618.87L123.466 608.868L106.345 611.603L104.891 610.237L117.075 597.248L118.789 598.857L109.407 608.859L126.528 606.124Z" fill="#1A1A1E"/>
<path d="M132.337 607.436L133.674 605.861L140.733 611.859L139.396 613.434L132.337 607.436ZM138.203 616.16L139.724 617.452L128.198 631.03L126.406 629.507L135.281 619.052L118.316 622.633L116.796 621.341L128.322 607.763L130.113 609.285L121.239 619.74L138.203 616.16Z" fill="#1A1A1E"/>
<path d="M137.39 638.679C135.256 637.052 134.02 634.99 133.682 632.494C133.359 629.978 133.996 627.671 135.592 625.574C137.189 623.477 139.235 622.259 141.731 621.922C144.241 621.566 146.563 622.201 148.697 623.828C150.095 624.893 151.092 626.191 151.689 627.721C152.3 629.231 152.428 630.748 152.075 632.27L149.876 631.983C150.146 630.845 150.043 629.706 149.567 628.567C149.124 627.423 148.374 626.448 147.316 625.642C145.749 624.447 144.009 623.987 142.098 624.262C140.202 624.519 138.656 625.431 137.462 626.999C136.268 628.568 135.792 630.31 136.035 632.226C136.291 634.124 137.204 635.67 138.771 636.865C139.829 637.672 140.961 638.146 142.166 638.288C143.385 638.411 144.555 638.228 145.674 637.738L146.542 639.832C145.093 640.52 143.551 640.762 141.914 640.559C140.277 640.357 138.769 639.73 137.39 638.679Z" fill="#1A1A1E"/>
<path d="M157.58 652.47L154.996 650.694L152.517 638.571L147.658 645.648L145.72 644.316L155.803 629.634L157.74 630.966L153.284 637.455L164.727 635.769L167.368 637.585L154.955 639.426L157.58 652.47Z" fill="#1A1A1E"/>
<path d="M179.101 644.813L180.798 645.862L171.442 661.019L169.442 659.783L176.646 648.112L160.412 654.202L158.715 653.153L168.071 637.997L170.071 639.233L162.867 650.903L179.101 644.813Z" fill="#1A1A1E"/>
<path d="M186.621 645.826L187.613 644.014L195.735 648.466L194.743 650.278L186.621 645.826ZM194.124 653.189L195.873 654.148L187.319 669.772L185.257 668.642L191.844 656.611L175.949 663.539L174.2 662.58L182.754 646.956L184.815 648.086L178.229 660.117L194.124 653.189Z" fill="#1A1A1E"/>
<path d="M211.564 678.651L213.837 679.677L210.94 686.108L208.797 685.141L210.758 680.789L197.511 674.812L195.55 679.165L193.407 678.198L196.304 671.767L198.285 672.66C200.043 671.708 201.516 669.91 202.707 667.268L206.321 659.245L217.945 664.489L211.564 678.651ZM200.882 673.832L209.422 677.685L214.865 665.601L207.528 662.291L204.85 668.235C203.728 670.725 202.405 672.591 200.882 673.832Z" fill="#1A1A1E"/>
<path d="M235.706 671.474L229.294 688.093L227.101 687.246L232.692 672.754L225.184 669.853L222.324 677.265C221.255 680.035 219.988 681.735 218.523 682.366C217.08 683.005 215.465 682.903 213.678 682.06L214.473 679.999C215.684 680.62 216.73 680.68 217.61 680.18C218.513 679.688 219.353 678.434 220.131 676.418L223.812 666.878L235.706 671.474Z" fill="#1A1A1E"/>
<path d="M250.122 676.27L244.506 693.176L242.276 692.434L244.432 685.942L241.526 684.975L234.165 689.736L231.326 688.791L238.844 684.008C237.56 683.356 236.632 682.421 236.06 681.205C235.488 679.988 235.427 678.704 235.877 677.351C236.386 675.818 237.342 674.747 238.745 674.138C240.179 673.513 241.684 673.463 243.261 673.988L250.122 676.27ZM240.498 682.306L245.129 683.846L247.173 677.692L242.543 676.152C241.596 675.837 240.692 675.849 239.828 676.188C238.988 676.534 238.414 677.169 238.107 678.093C237.8 679.017 237.88 679.87 238.346 680.651C238.835 681.439 239.552 681.991 240.498 682.306Z" fill="#1A1A1E"/>
<path d="M261.778 698.407C259.295 697.767 257.435 696.418 256.199 694.359C254.969 692.276 254.691 689.924 255.365 687.301C256.122 684.356 257.138 682.214 258.414 680.875C259.695 679.512 261.835 678.53 264.834 677.928C265.405 677.805 266.148 677.678 267.065 677.546C268.004 677.42 268.708 677.306 269.175 677.206C269.665 677.111 270.204 676.968 270.793 676.776C271.387 676.561 271.864 676.279 272.224 675.93C272.583 675.581 272.871 675.128 273.088 674.57L274.615 676.067C274.382 676.596 274.065 677.066 273.665 677.478C273.264 677.89 272.877 678.207 272.501 678.43C272.148 678.658 271.614 678.876 270.898 679.084C270.212 679.275 269.675 679.407 269.289 679.479C268.932 679.535 268.295 679.628 267.378 679.76C266.485 679.898 265.885 679.989 265.58 680.033C263.793 680.309 262.423 680.729 261.469 681.293C260.521 681.834 259.732 682.661 259.103 683.774C260.151 682.94 261.334 682.436 262.654 682.26C264.003 682.068 265.252 682.119 266.402 682.415C268.701 683.007 270.403 684.255 271.508 686.158C272.641 688.044 272.907 690.16 272.304 692.506C271.707 694.83 270.405 696.555 268.4 697.683C266.423 698.793 264.216 699.034 261.778 698.407ZM262.364 696.129C264.157 696.591 265.768 696.429 267.195 695.643C268.652 694.841 269.596 693.6 270.027 691.921C270.465 690.218 270.27 688.684 269.444 687.319C268.647 685.937 267.341 685.012 265.524 684.544C263.891 684.124 262.275 684.26 260.676 684.952C259.082 685.621 258.066 686.807 257.629 688.509C257.18 690.257 257.408 691.849 258.314 693.284C259.243 694.725 260.593 695.673 262.364 696.129Z" fill="#1A1A1E"/>
<path d="M287.761 685.491L289.716 685.889L286.166 703.347L283.862 702.878L286.596 689.435L273.463 700.759L271.508 700.361L275.058 682.903L277.362 683.372L274.628 696.815L287.761 685.491Z" fill="#1A1A1E"/>
<path d="M299.452 696.149C301.373 697.239 302.176 698.806 301.86 700.848C301.635 702.304 300.868 703.459 299.559 704.314C298.276 705.149 296.579 705.403 294.468 705.075C290.925 704.526 288.82 702.758 288.153 699.77L290.303 698.913C290.708 701.115 292.212 702.418 294.816 702.822C296.177 703.033 297.267 702.901 298.085 702.427C298.926 701.956 299.418 701.263 299.559 700.348C299.686 699.526 299.485 698.81 298.955 698.199C298.425 697.588 297.643 697.202 296.611 697.042L294.042 696.644L294.39 694.391L296.255 694.68C297.264 694.836 298.089 694.711 298.728 694.306C299.394 693.88 299.796 693.221 299.934 692.329C300.065 691.484 299.832 690.739 299.235 690.094C298.642 689.425 297.77 689.001 296.621 688.823C294.415 688.481 292.812 689.134 291.813 690.782L290.051 689.356C291.613 687.026 293.919 686.097 296.969 686.569C298.823 686.857 300.225 687.579 301.175 688.735C302.129 689.869 302.497 691.14 302.279 692.548C302 694.356 301.057 695.556 299.452 696.149Z" fill="#1A1A1E"/>
<path d="M318.561 689.7L320.898 689.949L319.01 707.665L316.673 707.415L317.496 699.691L307.297 698.601L306.474 706.325L304.137 706.076L306.025 688.36L308.362 688.61L307.539 696.334L317.738 697.424L318.561 689.7Z" fill="#1A1A1E"/>
<path d="M331.158 690.114C333.79 690.26 335.86 691.315 337.368 693.278C338.901 695.219 339.598 697.458 339.457 699.996C339.443 700.257 339.399 700.624 339.325 701.095L323.715 700.228C323.852 702.044 324.532 703.521 325.753 704.66C326.999 705.776 328.57 706.386 330.466 706.492C331.818 706.567 332.994 706.358 333.996 705.867C335.024 705.353 335.811 704.659 336.359 703.785L338.354 705.11C337.502 706.323 336.38 707.26 334.988 707.921C333.597 708.581 332.035 708.863 330.305 708.767C327.508 708.611 325.28 707.607 323.623 705.755C321.966 703.902 321.212 701.624 321.362 698.92C321.509 696.264 322.497 694.094 324.326 692.411C326.155 690.728 328.432 689.963 331.158 690.114ZM331.032 692.391C329.183 692.288 327.6 692.759 326.282 693.804C324.989 694.827 324.175 696.209 323.841 697.951L337.104 698.688C336.971 696.801 336.329 695.302 335.177 694.191C334.026 693.081 332.644 692.48 331.032 692.391Z" fill="#1A1A1E"/>
<path d="M350.13 709.225C347.447 709.223 345.216 708.331 343.436 706.548C341.656 704.741 340.767 702.52 340.769 699.883C340.77 697.246 341.662 695.037 343.443 693.257C345.225 691.453 347.457 690.552 350.14 690.554C351.897 690.555 353.476 690.984 354.876 691.84C356.276 692.672 357.296 693.801 357.937 695.227L356.013 696.33C355.539 695.261 354.768 694.417 353.7 693.799C352.655 693.157 351.468 692.835 350.139 692.834C348.168 692.833 346.506 693.521 345.152 694.897C343.798 696.25 343.12 697.913 343.119 699.885C343.118 701.856 343.794 703.531 345.146 704.91C346.499 706.265 348.16 706.943 350.131 706.945C351.461 706.946 352.648 706.638 353.693 706.021C354.738 705.38 355.557 704.526 356.152 703.457L358.11 704.599C357.373 706.024 356.292 707.151 354.867 707.982C353.442 708.812 351.863 709.227 350.13 709.225Z" fill="#1A1A1E"/>
<path d="M374.154 690.065L376.501 689.938L377.469 707.728L375.122 707.855L374.932 704.369C373.438 707.067 371.115 708.501 367.962 708.673C365.425 708.81 363.207 708.027 361.307 706.322C359.431 704.616 358.422 702.458 358.28 699.849C358.138 697.239 358.907 694.985 360.587 693.086C362.291 691.185 364.411 690.166 366.947 690.028C370.1 689.857 372.566 691.032 374.343 693.552L374.154 690.065ZM362.927 704.628C364.352 705.907 366.048 706.493 368.016 706.386C369.983 706.279 371.606 705.513 372.884 704.087C374.16 702.638 374.745 700.929 374.638 698.96C374.53 696.991 373.764 695.368 372.34 694.089C370.914 692.787 369.217 692.189 367.249 692.296C365.281 692.403 363.659 693.181 362.383 694.63C361.105 696.055 360.52 697.752 360.627 699.721C360.734 701.69 361.501 703.326 362.927 704.628Z" fill="#1A1A1E"/>
</svg>
