<svg width="1034" height="1034" viewBox="0 0 1034 1034" fill="none" xmlns="http://www.w3.org/2000/svg">
<path d="M346.289 36.2128C399.939 16.9985 457.739 6.53375 517.979 6.53375C799.656 6.53375 1028 235.337 1028 517.581C1028 799.825 799.656 1028.63 517.979 1028.63C340.545 1028.63 184.272 937.838 92.9082 800.091" stroke="#E8ECFC" stroke-width="9.46754" stroke-linecap="round"/>
<path d="M82.0151 246.691C74.8553 237.354 74.2145 224.63 81.1497 215.123C98.436 191.426 136.172 145.01 195.135 99.7445C254.099 54.4795 308.678 30.0281 336.029 19.4574C347.003 15.2165 359.12 19.1301 366.28 28.4671C378.274 44.1093 371.309 67.4867 353.287 75.4672C322.774 88.9797 277.464 112.244 231.675 147.396C185.886 182.547 151.696 220.313 130.751 246.304C118.381 261.654 94.0099 262.333 82.0151 246.691Z" fill="#E8ECFC"/>
<path d="M125.071 228.205L118.69 226.342L111.471 235.937L115.025 241.558L113.416 243.696L99.0489 220.695L100.615 218.614L126.68 226.067L125.071 228.205ZM110.108 233.779L116.241 225.629L102.344 221.547L110.108 233.779Z" fill="#1A1A1E"/>
<path d="M120.806 204.679L122.303 202.82L136.376 214.169L134.878 216.028L128.743 211.08L122.208 219.191L128.344 224.139L126.847 225.998L112.774 214.65L114.271 212.791L120.407 217.739L126.941 209.627L120.806 204.679Z" fill="#1A1A1E"/>
<path d="M131.115 192.514L132.876 194.014L126.925 201.012L138.927 211.232L137.38 213.051L123.616 201.33L131.115 192.514Z" fill="#1A1A1E"/>
<path d="M142.316 180.022L155.761 192.108L154.166 193.884L142.442 183.345L136.981 189.427L142.978 194.817C145.219 196.831 146.374 198.648 146.443 200.266C146.529 201.867 145.849 203.363 144.405 204.756L142.737 203.257C143.763 202.331 144.198 201.36 144.041 200.344C143.901 199.31 143.015 198.059 141.383 196.593L133.666 189.656L142.316 180.022Z" fill="#1A1A1E"/>
<path d="M153.138 168.677L154.536 167.212L167.611 179.698L165.964 181.425L155.896 171.811L158.525 189.223L157.127 190.689L144.052 178.203L145.7 176.476L155.767 186.09L153.138 168.677Z" fill="#1A1A1E"/>
<path d="M155.56 162.165L154.086 160.672L160.773 154.062L162.247 155.554L155.56 162.165ZM164.897 157.003L166.337 155.579L179.04 168.444L177.342 170.122L167.561 160.216L169.677 177.698L168.237 179.122L155.534 166.257L157.232 164.579L167.013 174.485L164.897 157.003Z" fill="#1A1A1E"/>
<path d="M186.92 161.729C184.925 163.585 182.65 164.466 180.096 164.374C177.525 164.263 175.328 163.228 173.507 161.268C171.686 159.307 170.822 157.049 170.915 154.493C170.992 151.92 172.027 149.705 174.022 147.849C175.328 146.634 176.798 145.86 178.43 145.527C180.046 145.176 181.584 145.309 183.045 145.925L182.379 148.076C181.287 147.61 180.131 147.517 178.91 147.797C177.69 148.042 176.586 148.625 175.597 149.545C174.132 150.908 173.372 152.569 173.318 154.529C173.247 156.472 173.893 158.176 175.255 159.642C176.617 161.108 178.277 161.885 180.235 161.973C182.176 162.043 183.879 161.397 185.345 160.034C186.333 159.114 187.002 158.064 187.353 156.882C187.686 155.683 187.704 154.48 187.407 153.275L189.651 152.768C190.089 154.337 190.065 155.923 189.58 157.526C189.095 159.129 188.209 160.531 186.92 161.729Z" fill="#1A1A1E"/>
<path d="M203.471 146.397L201.082 148.499L188.541 147.923L194.293 154.47L192.5 156.046L180.568 142.463L182.36 140.887L187.634 146.891L188.823 135.203L191.267 133.053L189.989 145.735L203.471 146.397Z" fill="#1A1A1E"/>
<path d="M202.119 124.073L203.676 122.778L215.225 136.69L213.389 138.215L204.497 127.504L205.101 145.103L203.544 146.398L191.995 132.486L193.831 130.961L202.723 141.673L202.119 124.073Z" fill="#1A1A1E"/>
<path d="M205.806 117.462L204.515 115.81L211.921 110.017L213.212 111.67L205.806 117.462ZM215.677 113.415L217.272 112.167L228.403 126.415L226.523 127.885L217.952 116.915L218.034 134.525L216.439 135.772L205.308 121.524L207.188 120.054L215.759 131.025L215.677 113.415Z" fill="#1A1A1E"/>
<path d="M246.164 110.725L248.224 109.254L252.381 115.083L250.439 116.47L247.625 112.525L235.617 121.098L238.431 125.043L236.488 126.43L232.331 120.601L234.126 119.319C234.189 117.289 233.367 115.077 231.659 112.683L226.473 105.41L237.01 97.8881L246.164 110.725ZM236.481 117.638L244.221 112.112L236.411 101.159L229.759 105.908L233.602 111.296C235.211 113.553 236.171 115.667 236.481 117.638Z" fill="#1A1A1E"/>
<path d="M252.682 87.3859L262.713 102.429L260.728 103.754L251.981 90.6366L245.184 95.1741L249.657 101.883C251.329 104.391 251.998 106.437 251.664 108.022C251.351 109.594 250.322 110.875 248.577 111.866L247.333 110C248.556 109.358 249.218 108.525 249.318 107.502C249.438 106.465 248.889 105.034 247.672 103.209L241.915 94.5737L252.682 87.3859Z" fill="#1A1A1E"/>
<path d="M265.018 79.6471L274.639 94.9561L272.619 96.2271L268.925 90.3484L266.292 92.0046L265.274 100.849L262.703 102.467L263.805 93.4839C262.466 94.0705 261.135 94.1957 259.813 93.8595C258.491 93.5233 257.446 92.7428 256.676 91.5181C255.804 90.1301 255.581 88.6891 256.009 87.1952C256.445 85.6679 257.376 84.455 258.805 83.5563L265.018 79.6471ZM263.538 91.0884L267.732 88.4501L264.23 82.8776L260.036 85.5159C259.179 86.0551 258.605 86.7724 258.314 87.6679C258.043 88.5505 258.17 89.4102 258.696 90.2471C259.222 91.084 259.941 91.5715 260.854 91.7095C261.787 91.8346 262.681 91.6276 263.538 91.0884Z" fill="#1A1A1E"/>
<path d="M294.309 80.8304L296.506 79.5745L300.056 85.7931L297.984 86.9772L295.582 82.7687L282.772 90.089L285.175 94.2975L283.103 95.4817L279.553 89.2631L281.468 88.1687C281.735 86.1558 281.139 83.8721 279.681 81.3177L275.252 73.5602L286.492 67.1371L294.309 80.8304ZM283.98 86.7333L292.237 82.0146L285.567 70.3313L278.472 74.3861L281.753 80.1336C283.127 82.5414 283.87 84.7413 283.98 86.7333Z" fill="#1A1A1E"/>
<path d="M294.88 62.1427C297.243 60.8872 299.595 60.716 301.935 61.6293C304.286 62.5099 306.065 64.0896 307.275 66.3683C307.399 66.6025 307.553 66.9439 307.736 67.3925L293.718 74.8407C294.79 76.3461 296.155 77.2726 297.813 77.6201C299.481 77.9351 301.167 77.6401 302.87 76.7352C304.083 76.0905 304.997 75.2914 305.609 74.3378C306.232 73.3516 306.552 72.3352 306.57 71.2884L308.999 71.3904C308.895 72.8924 308.412 74.2958 307.549 75.6007C306.686 76.9056 305.477 77.9709 303.923 78.7966C301.411 80.1313 298.949 80.4292 296.537 79.6903C294.126 78.9514 292.276 77.368 290.987 74.9403C289.721 72.5551 289.442 70.1511 290.148 67.7282C290.854 65.3053 292.432 63.4434 294.88 62.1427ZM295.965 64.1871C294.304 65.0694 293.176 66.3107 292.578 67.9111C291.991 69.4789 292.01 71.1073 292.633 72.7963L304.544 66.4678C303.438 64.8986 302.094 63.9338 300.511 63.5737C298.928 63.2135 297.412 63.418 295.965 64.1871Z" fill="#1A1A1E"/>
<path d="M317.204 51.3193L318.226 53.3961L312.485 56.224L319.445 70.3723L317.304 71.4268L310.344 57.2784L304.602 60.1063L303.58 58.0295L317.204 51.3193Z" fill="#1A1A1E"/>
<path d="M327.489 46.0951C329.924 44.987 332.282 44.9605 334.562 46.0157C336.854 47.039 338.534 48.725 339.601 51.0736C339.711 51.315 339.844 51.6653 339.999 52.1242L325.551 58.6979C326.528 60.2663 327.834 61.2748 329.468 61.7235C331.113 62.1402 332.814 61.9493 334.569 61.1506C335.82 60.5816 336.78 59.84 337.451 58.9259C338.133 57.9798 338.515 56.9849 338.596 55.9412L341.014 56.1921C340.819 57.6849 340.25 59.056 339.309 60.3055C338.367 61.5549 337.096 62.544 335.494 63.2728C332.905 64.4508 330.429 64.597 328.068 63.7114C325.706 62.8259 323.956 61.1319 322.819 58.6296C321.702 56.1713 321.57 53.7546 322.424 51.3796C323.277 49.0046 324.966 47.2431 327.489 46.0951ZM328.447 48.2023C326.735 48.9809 325.532 50.1506 324.838 51.7113C324.156 53.2402 324.074 54.8666 324.593 56.5907L336.87 51.0053C335.862 49.3711 334.579 48.3257 333.021 47.869C331.464 47.4123 329.939 47.5234 328.447 48.2023Z" fill="#1A1A1E"/>
<path d="M337.946 38.7864L337.137 36.8511L345.809 33.2214L346.618 35.1567L337.946 38.7864ZM348.535 37.491L350.402 36.7092L357.377 53.3929L355.176 54.3142L349.805 41.4679L345.236 58.4745L343.368 59.2562L336.394 42.5726L338.595 41.6512L343.966 54.4976L348.535 37.491Z" fill="#1A1A1E"/>
</svg>
