<svg width="48" height="67" viewBox="0 0 48 67" fill="none" xmlns="http://www.w3.org/2000/svg">
<g clip-path="url(#clip0_250_317)">
<path d="M47.999 17.3201C48.0181 16.2907 47.9257 15.2623 47.7233 14.2527C47.4979 13.227 46.9441 12.3657 46.6011 11.3875C46.4554 10.9343 46.3327 10.474 46.2335 10.0085C46.1196 9.53467 45.8047 9.09613 45.5217 8.70631C44.9202 7.87917 44.1287 7.17993 43.3054 6.57571C43.107 6.354 42.7651 6.18833 42.552 6.06042C41.9676 5.70958 41.2937 5.53904 40.6603 5.28687C39.1902 4.70093 37.78 4.009 36.2804 3.48762C35.5637 3.24398 34.8164 3.09171 34.0972 2.84686C33.2494 2.55815 32.4078 2.25604 31.5514 1.99413C31.2868 1.91129 31.0184 1.83698 30.7501 1.76389C28.0683 0.659001 25.1782 -0.0938354 22.2672 0.0182374C19.1382 0.140056 16.1256 1.35824 13.4903 2.97476C10.3417 4.91046 7.58752 7.62335 5.22912 10.441C4.05924 11.8411 3.00272 13.3311 2.06947 14.8971C1.14816 16.4393 0.313831 18.0534 0.266051 19.877C0.233118 19.8586 0.194365 19.8534 0.157706 19.8625C0.121048 19.8716 0.0892482 19.8942 0.0688021 19.9258L0.0479748 19.9513C0.0298076 19.9652 0.0168966 19.9848 0.0113369 20.007C0.00577719 20.0291 0.00789494 20.0524 0.0173462 20.0732C0.0152364 20.1223 0.032363 20.1703 0.0651268 20.2072C0.366513 20.5068 0.694852 20.4788 1.05872 20.6238C1.59288 20.8345 2.18463 20.8577 2.74697 20.9503C4.0003 21.1561 5.24872 21.4607 6.50817 21.6276C7.03498 21.697 7.54097 21.7664 8.06166 21.8822C8.58234 21.9979 9.12876 22.0283 9.63352 22.205C10.1064 22.3707 10.5438 22.3609 11.0412 22.4133C11.2801 22.4377 11.4945 22.512 11.7408 22.5229C11.9451 22.5297 12.1496 22.5244 12.3533 22.5071C12.3619 22.5154 12.3724 22.5213 12.384 22.5241C12.7246 22.646 12.874 22.5656 13.1717 22.3865C13.6194 22.0904 14.1048 21.8548 14.615 21.686C14.9899 21.5764 15.3402 21.4278 15.7311 21.3449C16.0878 21.278 16.4362 21.1726 16.77 21.0307C17.0346 20.9283 17.2454 20.7687 17.2931 20.4922C17.3103 20.396 17.2552 20.2693 17.1486 20.2693C17.354 20.0277 17.5194 19.755 17.6386 19.4616C17.8388 18.9546 18.1 18.4736 18.4166 18.0291C18.8368 17.4857 19.0941 16.8109 19.4629 16.2225C19.8316 15.6341 20.2996 15.1468 20.7627 14.6389C21.6939 13.6131 22.723 12.6898 24.0388 12.1879C24.683 11.9333 25.3695 11.8015 26.0627 11.7993C26.6618 11.7993 27.256 11.8188 27.8527 11.7749C27.8729 11.8027 27.8993 11.8256 27.9298 11.8417C27.9602 11.8579 27.994 11.8669 28.0285 11.868C28.0631 11.8692 28.0974 11.8625 28.1289 11.8485C28.1604 11.8345 28.1883 11.8135 28.2104 11.7871C30.0359 12.4534 31.6543 13.6594 32.6748 15.3308C33.5324 16.7427 33.7027 18.3165 33.4099 19.9172C33.1416 21.3985 32.2007 22.635 31.174 23.6936C29.5715 25.3455 27.5525 26.5563 25.8373 28.0973C24.1348 29.614 22.7299 31.4314 21.6939 33.4573C20.6398 35.569 19.8218 37.7892 19.2546 40.0781C18.693 42.2643 18.2942 44.4886 18.0613 46.7331C18.0445 46.766 18.0349 46.8021 18.0331 46.8391C18.0258 47.0084 18.016 47.1777 18.0037 47.3458C18.0003 47.39 18.0072 47.4345 18.0237 47.4756C18.0403 47.5168 18.0661 47.5537 18.0993 47.5834L17.9633 47.6138C17.9424 47.6173 17.9235 47.628 17.9098 47.6441C17.8961 47.6601 17.8886 47.6805 17.8886 47.7015C17.8886 47.7226 17.8961 47.7429 17.9098 47.759C17.9235 47.7751 17.9424 47.7858 17.9633 47.7892C18.7241 47.9829 19.5707 47.8562 20.3486 47.866C21.281 47.8769 22.1766 48.0438 23.0979 48.1681C24.7432 48.3898 26.4327 48.3386 28.0928 48.3204C28.1037 48.3368 28.1184 48.3503 28.1356 48.3599C28.1529 48.3694 28.1723 48.3747 28.192 48.3752C28.2167 48.3769 28.2414 48.3724 28.2638 48.3622C28.2863 48.352 28.3058 48.3363 28.3207 48.3167H28.3648C28.4072 48.3202 28.4497 48.313 28.4887 48.296C28.5276 48.279 28.5617 48.2526 28.5878 48.2193C28.8489 48.1963 29.106 48.1394 29.3522 48.0499C29.8668 47.8721 30.3973 47.7539 30.9168 47.5931C31.4754 47.4201 32.2644 47.7271 32.6234 47.1144C32.8856 46.6709 32.5977 46.2202 32.4764 45.7683C33.6329 41.0563 35.9484 37.3567 39.9498 34.4989C41.2635 33.5646 42.4145 32.4227 43.3569 31.1184C44.315 29.7918 44.8822 28.1619 45.6234 26.711C45.7949 26.3764 45.9583 26.0394 46.1135 25.6999C46.1506 25.7007 46.1869 25.6892 46.2166 25.6671C46.2463 25.645 46.2678 25.6137 46.2776 25.5781C46.2994 25.5013 46.2994 25.4199 46.2776 25.343C47.368 22.7982 47.9916 20.1268 47.999 17.3201ZM46.9613 21.3401C46.9059 21.2787 46.8394 21.2283 46.7652 21.1915C46.5557 21.0696 46.3977 20.8881 46.1833 20.7651C45.8525 20.5714 45.6026 20.2413 45.3073 19.9976C45.1113 19.8368 44.8503 19.7175 44.7046 19.5031C44.6967 19.4927 44.6871 19.4836 44.6764 19.4763C44.696 19.2545 44.7082 19.0316 44.718 18.8087C44.9496 19.0353 45.2387 19.229 45.4384 19.4032C45.7165 19.6468 45.9738 19.9075 46.2286 20.1706C46.3879 20.3339 46.6979 20.3923 46.7799 20.6287C46.7893 20.6577 46.8045 20.6847 46.8245 20.7078C46.8446 20.7309 46.8691 20.7498 46.8967 20.7634C46.9242 20.7769 46.9542 20.7848 46.9849 20.7865C47.0156 20.7883 47.0463 20.7839 47.0752 20.7736C47.0397 20.9624 47.0029 21.1525 46.9613 21.3401ZM47.1585 20.3022C47.0927 20.2228 47.0174 20.1516 46.9343 20.0902C46.6513 19.8636 46.3695 19.6651 46.1 19.4166C45.838 19.1853 45.5631 18.969 45.2767 18.7685C45.137 18.6674 44.9091 18.5492 44.7291 18.4103C44.7291 18.2666 44.7291 18.1229 44.7291 17.9791C44.9504 18.1668 45.1828 18.3413 45.4249 18.5017C46.0044 18.9269 46.5839 19.3435 47.1634 19.765C47.184 19.7786 47.2063 19.7896 47.2296 19.7979C47.2087 19.966 47.1855 20.1341 47.1548 20.3022H47.1585ZM47.3006 19.2058C47.0583 18.9923 46.7923 18.8068 46.508 18.6528C46.073 18.4091 45.6504 18.1302 45.2314 17.8573C45.1199 17.7842 44.8773 17.6417 44.7205 17.5138C44.7131 17.2945 44.7009 17.0752 44.6849 16.8559C45.1358 17.0789 45.5756 17.3993 45.9971 17.6526C46.3156 17.8439 46.911 18.3336 47.3006 18.1399C47.339 18.1193 47.3679 18.0849 47.3815 18.0437C47.3668 18.44 47.3398 18.829 47.3006 19.2107V19.2058ZM47.3852 17.9328C47.3803 17.9148 47.372 17.8978 47.3607 17.8829C47.1083 17.5467 46.481 17.3615 46.1098 17.169C45.7177 16.9656 45.137 16.5417 44.6555 16.5088C44.6359 16.3053 44.6127 16.1019 44.5857 15.8997C44.7768 16.1433 45.0892 16.2785 45.3416 16.4466C45.9611 16.8675 46.6416 17.192 47.3594 17.409C47.3705 17.4126 47.3821 17.4147 47.3937 17.4151C47.3925 17.5917 47.3913 17.7659 47.3852 17.9377V17.9328ZM47.2529 15.1785C47.333 15.7846 47.3788 16.3946 47.3901 17.0058C47.0299 16.6842 46.4663 16.5465 46.0424 16.3492C45.5658 16.1287 45.1272 15.8363 44.6323 15.6585C44.6201 15.654 44.6071 15.6522 44.5942 15.6532C44.5813 15.6543 44.5688 15.6582 44.5575 15.6646C44.5073 15.3223 44.446 14.9812 44.375 14.6437C44.62 14.7875 44.8565 14.9678 45.0819 15.131C45.3992 15.3588 45.779 15.4965 46.1208 15.695C46.4087 15.8595 46.644 15.9874 46.9784 15.946C47.0217 15.9365 47.0607 15.9135 47.0897 15.8802C47.1188 15.8469 47.1362 15.8052 47.1395 15.7613C47.1428 15.7174 47.1318 15.6736 47.1081 15.6364C47.0843 15.5992 47.0492 15.5707 47.0078 15.5549C46.4141 15.3676 45.8461 15.1073 45.3171 14.7802C45.057 14.5983 44.7838 14.4354 44.5 14.2929C44.4252 14.2576 44.3456 14.2442 44.2708 14.2161C44.2059 13.9421 44.13 13.668 44.0503 13.3951L44.1349 13.428C44.4779 13.5705 44.7989 13.7642 45.1383 13.9153C45.7226 14.1747 46.3842 14.6657 47.0507 14.6096C47.0858 14.6062 47.1196 14.5941 47.1487 14.5743C47.1916 14.7704 47.2259 14.9714 47.2529 15.1785ZM46.6146 13.132C46.6454 13.1337 46.676 13.1265 46.7028 13.1113C46.8471 13.4524 46.9654 13.8038 47.0568 14.1625C46.3977 13.9798 45.7471 13.6935 45.1088 13.4389C44.8099 13.3171 44.5208 13.1819 44.2182 13.0735C44.1258 13.0403 44.0301 13.0174 43.9327 13.0053C43.8322 12.691 43.7208 12.3779 43.6007 12.0685C44.0386 12.1911 44.4639 12.3542 44.8712 12.5558C45.2081 12.7178 45.5818 12.7994 45.9211 12.9468C46.1382 13.0522 46.3736 13.1151 46.6146 13.132ZM46.1245 11.8005C46.236 12.0855 46.3585 12.3657 46.492 12.6532C46.002 12.3779 45.3747 12.2878 44.8712 12.0782C44.4192 11.8745 43.9388 11.7398 43.4463 11.6787C43.3238 11.3887 43.1939 11.1025 43.0555 10.8259C43.1021 10.8442 43.1486 10.8625 43.1952 10.8771C43.5309 10.9867 43.8788 11.0196 44.1998 11.1683C44.5439 11.3202 44.8985 11.4476 45.2608 11.5495C45.5389 11.6324 45.8158 11.8102 46.1073 11.8139L46.1245 11.8005ZM45.7839 10.7261C45.8256 10.9015 45.8746 11.0732 45.9272 11.2401C45.8697 11.206 45.8145 11.1695 45.7631 11.1415C45.6361 11.0936 45.5035 11.0616 45.3686 11.0464C45.0451 10.9586 44.7265 10.8537 44.4142 10.7321C44.0853 10.6253 43.7486 10.5438 43.4071 10.4885C43.1948 10.4346 42.9864 10.3663 42.7835 10.2839C42.6831 10.0975 42.5777 9.9184 42.4699 9.73446C42.944 9.88064 43.4316 9.96469 43.9119 10.1413C44.4767 10.3496 45.1297 10.7005 45.7496 10.6164C45.7582 10.6517 45.7692 10.6883 45.7802 10.7261H45.7839ZM45.5793 10.1036C45.2693 10.0268 44.9435 9.99149 44.6396 9.89282C44.3358 9.79415 44.0148 9.67964 43.695 9.59315C43.4017 9.52003 43.1043 9.4639 42.8043 9.42504C42.5997 9.39337 42.4037 9.32758 42.2065 9.30322C42.0693 9.09247 41.9259 8.88416 41.7777 8.68195C41.9119 8.73542 42.0529 8.77026 42.1967 8.78549C42.6066 8.79137 43.0135 8.8562 43.4047 8.97796C43.7404 9.08882 44.1116 9.14729 44.4534 9.24962C44.7061 9.3411 44.9704 9.39727 45.2387 9.41651C45.369 9.63637 45.4817 9.8661 45.5756 10.1036H45.5793ZM44.3885 8.31649C44.5245 8.46024 44.6543 8.60764 44.7768 8.76113L44.6372 8.72824C44.2713 8.62255 43.8977 8.54517 43.5198 8.49678C42.8668 8.42735 42.166 8.25315 41.5094 8.28482C41.4984 8.28677 41.4877 8.29004 41.4775 8.29456C41.3664 8.15407 41.2525 8.01682 41.1357 7.88282C41.4296 7.91202 41.7249 7.92625 42.0203 7.92546C42.8252 7.93277 43.5774 8.38715 44.3848 8.31649H44.3885ZM42.9183 7.05324L42.9501 7.07638C42.9643 7.10015 42.9831 7.12089 43.0054 7.1374C43.0277 7.15392 43.053 7.16589 43.08 7.17262C43.2895 7.32976 43.4941 7.493 43.6926 7.65989C43.325 7.58193 42.9575 7.50884 42.5899 7.45889C41.9774 7.37484 41.3648 7.52102 40.7522 7.45889C40.5366 7.23231 40.3124 7.01426 40.0796 6.80716L40.049 6.78037C40.3234 6.81935 40.6003 6.83884 40.8747 6.85224C41.2276 6.87173 41.5694 6.77793 41.9247 6.823C42.28 6.86807 42.5691 7.06542 42.9171 7.05324H42.9183ZM40.3516 5.82409C40.3668 5.80633 40.3781 5.78558 40.3847 5.76318C40.8135 5.93738 41.2484 6.0994 41.6858 6.25046C41.7434 6.27116 41.8255 6.30162 41.9173 6.33816C41.7409 6.32972 41.564 6.33379 41.3881 6.35035C40.8147 6.40516 40.1923 6.32598 39.6202 6.42709C39.4266 6.26995 39.2269 6.11767 39.0248 5.97027C39.1399 5.97027 39.2502 5.97027 39.3543 5.98002C39.6508 6.00438 40.1323 6.09087 40.3516 5.82409ZM38.9157 5.10415C39.1216 5.19917 39.3286 5.29418 39.5283 5.39042C39.6067 5.42818 39.6876 5.46229 39.7733 5.49884C39.6092 5.50615 39.445 5.50615 39.2833 5.49884C39.1546 5.49884 39.026 5.49884 38.8974 5.5098C38.7687 5.52077 38.607 5.54635 38.449 5.56097C38.1476 5.35875 37.8364 5.16627 37.5264 4.97989C37.7249 5.00913 37.927 5.03593 38.1255 5.05664C38.3656 5.08466 38.6768 5.17724 38.9157 5.10415ZM35.3714 3.76415C36.1631 3.98883 36.9405 4.26099 37.6992 4.57911C37.4298 4.56659 37.1599 4.58333 36.8942 4.62906C36.2645 4.28066 35.6176 3.9554 34.9659 3.6472C35.1031 3.68375 35.2366 3.72516 35.3714 3.76171V3.76415ZM16.5041 20.5422C16.4355 20.5738 16.3645 20.6031 16.2922 20.6311C16.2925 20.5999 16.2862 20.5691 16.2738 20.5405C16.2613 20.5119 16.2429 20.4863 16.2197 20.4652C16.1966 20.4442 16.1693 20.4282 16.1396 20.4184C16.1098 20.4086 16.0783 20.4051 16.0472 20.4082C15.3517 20.3921 14.6613 20.2852 13.9938 20.0902C13.7022 19.994 13.4327 19.8807 13.1485 19.8161C13.1607 19.7796 13.1717 19.7418 13.184 19.7053C13.2415 19.5393 13.3082 19.3767 13.3837 19.218C13.9522 19.3666 14.4937 19.7053 15.0401 19.8929C15.4848 20.0464 16.0067 20.2851 16.4931 20.3716C16.4786 20.3975 16.4714 20.4269 16.4725 20.4565C16.4736 20.4862 16.4828 20.5149 16.4992 20.5397L16.5041 20.5422ZM14.0979 20.5215C14.588 20.6031 15.0781 20.7322 15.5681 20.8016C15.3386 20.8311 15.1114 20.8763 14.8882 20.9369C14.7125 20.9924 14.5416 21.0621 14.3773 21.1452C14.366 21.1256 14.3494 21.1096 14.3295 21.0989C14.0612 20.9442 13.7169 20.9771 13.4204 20.9393C13.2388 20.9131 13.055 20.9037 12.8716 20.9113C12.9218 20.6421 12.9855 20.3728 13.0603 20.1085C13.4045 20.2486 13.728 20.4569 14.0931 20.519L14.0979 20.5215ZM13.6765 21.39L13.8345 21.418L13.69 21.485C13.4073 21.5973 13.1381 21.7407 12.8875 21.9126C12.847 21.878 12.7962 21.8574 12.7429 21.8541C12.7613 21.6519 12.7834 21.4497 12.814 21.2451C13.0958 21.2987 13.3837 21.3425 13.6716 21.3876L13.6765 21.39ZM16.8423 19.9781C16.7014 19.9172 16.5372 19.9185 16.3853 19.8563C16.1109 19.7528 15.8413 19.6505 15.5559 19.5737C14.8771 19.391 14.2082 19.0669 13.505 18.9646C13.7157 18.5638 13.9656 18.1801 14.2033 17.7964C14.4922 17.9996 14.7989 18.1765 15.1197 18.3251C15.66 18.5967 16.3351 18.6905 16.8484 19.0267C16.8531 19.0437 16.8611 19.0596 16.8721 19.0734C16.883 19.0872 16.8966 19.0987 16.9121 19.1071C16.9599 19.1291 17.0052 19.1498 17.0542 19.1681C17.0814 19.1794 17.1105 19.1852 17.14 19.1852C17.1694 19.1852 17.1986 19.1794 17.2257 19.1681C17.1629 19.464 17.0316 19.7414 16.8423 19.9781ZM20.6268 14.0091C19.6351 15.0363 18.8068 16.2078 18.1703 17.4833C18.0184 17.7879 17.782 18.0571 17.619 18.3616C17.5431 18.5041 17.396 18.6917 17.3066 18.8708C17.2937 18.8501 17.2771 18.832 17.2576 18.8172C16.8729 18.5066 16.3755 18.3775 15.9161 18.2203C15.5816 18.107 15.2557 17.9767 14.936 17.8475C14.7436 17.7671 14.5182 17.716 14.3234 17.6271C14.5084 17.3249 14.7056 17.0301 14.9114 16.7439C15.0609 16.8474 15.2092 16.9631 15.3611 17.0472C15.5342 17.1447 15.7196 17.2189 15.9124 17.2677C16.5152 17.4163 17.015 17.7282 17.6055 17.9097C17.6329 17.9192 17.662 17.9232 17.6909 17.9212C17.7199 17.9193 17.7481 17.9115 17.7739 17.8984C17.7998 17.8853 17.8227 17.8671 17.8413 17.845C17.8598 17.8228 17.8737 17.7971 17.882 17.7695C17.8903 17.7419 17.8928 17.7128 17.8895 17.6842C17.8862 17.6555 17.8771 17.6278 17.8627 17.6028C17.8483 17.5777 17.829 17.5558 17.8058 17.5385C17.7827 17.5211 17.7562 17.5085 17.7281 17.5016C17.2012 17.3408 16.7271 17.0789 16.1917 16.9217C15.8867 16.8316 15.5951 16.7171 15.2937 16.6208C15.2175 16.5958 15.144 16.5632 15.0744 16.5234C15.3398 16.1677 15.622 15.8241 15.921 15.4928C16.0937 15.7267 16.5213 15.868 16.7161 15.9642C17.0408 16.125 17.3862 16.2359 17.7134 16.3906C17.9388 16.4978 18.0454 16.6269 18.3027 16.6196C18.5146 16.6123 18.4729 16.3248 18.3345 16.2542C17.9525 16.0449 17.5557 15.8633 17.1473 15.7109C16.7994 15.5805 16.4662 15.4002 16.1133 15.2845C16.4041 14.9726 16.7063 14.6726 17.0199 14.3843C17.3679 14.4817 17.619 14.701 17.9559 14.8715C18.1802 14.9654 18.4117 15.0412 18.6481 15.0981C18.8723 15.1663 19.0561 15.3247 19.2901 15.3503C19.371 15.3588 19.4825 15.2869 19.4531 15.1919C19.3159 14.7534 18.718 14.6717 18.3272 14.5694C17.9045 14.4561 17.619 14.249 17.2539 14.1759H17.2601C17.6823 13.8019 18.1293 13.4564 18.5979 13.1417C18.6089 13.1462 18.6204 13.1491 18.6322 13.1502C19.0083 13.1965 19.4555 13.4146 19.7912 13.5888C19.9181 13.6274 20.0487 13.6531 20.1808 13.6655C20.38 13.7217 20.572 13.8006 20.7529 13.9006L20.6268 14.0091ZM21.0053 13.6229C20.9853 13.5876 20.955 13.5591 20.9183 13.5413C20.7725 13.4682 20.5508 13.3037 20.3866 13.2976C20.188 13.2963 19.9907 13.2659 19.801 13.2075C19.4969 13.0843 19.1776 13.0024 18.8515 12.9639C19.1907 12.7475 19.5412 12.549 19.9015 12.3694C20.2494 12.5338 20.6219 12.5716 20.9759 12.7507C21.184 12.8727 21.4056 12.9704 21.6363 13.0418C21.4194 13.2124 21.2087 13.4097 21.0053 13.6119V13.6229ZM22.0038 12.7348C21.7196 12.613 21.4023 12.5485 21.1156 12.4254C20.9465 12.3416 20.7634 12.2896 20.5753 12.2719C20.4528 12.2658 20.2996 12.261 20.1526 12.2415C20.6571 12.0031 21.1788 11.8028 21.7135 11.6421C21.8719 11.7234 22.0403 11.7836 22.2145 11.8212C22.4093 11.8797 22.6776 12.0332 22.9337 12.1099C22.6086 12.2909 22.2977 12.4961 22.0038 12.7239V12.7348ZM23.6786 11.7603C23.5916 11.7932 23.5058 11.8297 23.4213 11.8675C23.2904 11.8013 23.1505 11.7545 23.006 11.7286C22.8222 11.6738 22.6495 11.5885 22.4645 11.5374C22.4191 11.5252 22.342 11.5118 22.2648 11.4959C22.6899 11.3924 23.1212 11.316 23.5561 11.2669C23.6074 11.3344 23.6737 11.3893 23.7497 11.4273C23.8258 11.4653 23.9096 11.4855 23.9947 11.4862C24.0693 11.5012 24.1407 11.5292 24.2054 11.569C24.029 11.6141 23.8538 11.6775 23.6786 11.7457V11.7603ZM25.6891 11.273C25.3553 11.2853 25.024 11.3352 24.7016 11.4216C24.5566 11.3315 24.4005 11.2602 24.2373 11.2097C24.5681 11.191 24.9017 11.189 25.2382 11.2036C25.493 11.2145 25.7479 11.2365 26.0027 11.2669L25.6891 11.273ZM28.3366 47.7527H28.257C28.3019 47.731 28.3487 47.7131 28.3966 47.6991C28.3985 47.714 28.4017 47.7287 28.4064 47.743C28.3827 47.7393 28.3584 47.7427 28.3366 47.7527ZM28.551 43.5695C28.2398 44.8242 28.2251 46.1276 28.3636 47.4055C28.1879 47.4657 28.0417 47.5897 27.9544 47.7527C26.3751 47.7527 24.7935 47.8075 23.2216 47.6431C21.7 47.481 20.1588 47.2435 18.6334 47.4737C18.6334 47.4676 18.6334 47.4628 18.6334 47.4567C18.6334 47.4287 18.6432 47.3994 18.6494 47.369C18.9593 45.7159 19.11 44.0336 19.4273 42.3744C19.7454 40.6668 20.1922 38.9855 20.764 37.3445C21.2948 35.8125 21.9525 34.3269 22.7303 32.9031C23.5279 31.479 24.5681 30.2523 25.7197 29.0975C27.9151 26.8865 30.7746 25.4185 32.6834 22.9164C33.5484 21.7963 34.0606 20.4466 34.1555 19.0375C34.2503 17.6284 33.9236 16.223 33.2164 14.9982C30.8812 10.9673 25.4979 9.76735 21.2749 11.1C18.9704 11.8309 16.9587 13.4061 15.3942 15.1968C14.5366 16.1713 13.8737 17.2835 13.2036 18.3945C12.9442 18.8283 12.7451 19.2951 12.6118 19.782C12.587 19.7985 12.569 19.8234 12.5613 19.8521C12.5537 19.8809 12.5568 19.9114 12.5702 19.9379C12.4114 20.5859 12.341 21.2521 12.3607 21.9187H12.0826C11.5766 21.6921 10.9224 21.7835 10.3894 21.7067C9.83322 21.6263 9.30028 21.4509 8.74161 21.3839C8.55049 21.362 8.35937 21.3425 8.16702 21.3242C7.71182 21.2152 7.24969 21.137 6.78383 21.0903C5.53418 20.9685 4.2784 20.6445 3.03733 20.4508C2.6073 20.385 2.16503 20.346 1.735 20.2742C1.38461 20.1329 1.04769 19.9989 0.661773 20.0062C0.769586 18.1497 1.68967 16.5441 2.63671 14.9812C3.46318 13.629 4.38346 12.3358 5.39084 11.111C7.40253 8.64906 9.75358 6.28091 12.3435 4.42075C15.0462 2.47897 18.1863 1.01715 21.5321 0.667528C23.4299 0.468965 25.3301 0.708946 27.1825 1.19622C27.2274 1.23075 27.2815 1.2515 27.3381 1.25591L27.4398 1.26444C28.8425 1.6647 30.2135 2.16756 31.5416 2.76889C34.4697 4.07113 37.6159 5.38433 39.9951 7.56853C40.8434 8.36277 41.5608 9.28485 42.1207 10.3009C42.1154 10.3164 42.1133 10.3328 42.1145 10.3492C42.1157 10.3655 42.1203 10.3814 42.1278 10.396C42.1354 10.4105 42.1458 10.4234 42.1585 10.4339C42.1711 10.4443 42.1858 10.4521 42.2016 10.4568H42.2077C43.178 12.2354 43.76 14.2637 44.0099 16.1823C44.4473 19.5372 43.6632 22.981 42.0068 25.9168C40.4141 28.7454 38.0079 31.0794 35.7218 33.3477C33.6929 35.3674 31.7107 37.4651 30.2086 39.9137C29.4993 41.0722 28.8793 42.2514 28.551 43.5731V43.5695ZM29.0251 47.6625C29.0251 47.6431 29.0251 47.6223 29.0166 47.6016C29.0815 47.6016 29.1391 47.5955 29.2052 47.5907C29.1452 47.6199 29.0852 47.6431 29.0227 47.6662L29.0251 47.6625ZM29.3388 47.1753C29.2457 47.1887 29.117 47.2069 28.9712 47.2337C28.9443 46.9597 28.9271 46.688 28.9173 46.4163L28.9455 46.4322C29.1461 46.5227 29.3319 46.6426 29.4968 46.7879C29.6075 46.8733 29.7238 46.9515 29.8448 47.0218C29.6838 47.0959 29.5137 47.1484 29.3388 47.1777V47.1753ZM30.216 46.8342C30.058 46.7036 29.8892 46.5866 29.7112 46.4846C29.4858 46.3335 29.2003 46.0996 28.9149 46.0229C28.9149 45.8389 28.9149 45.6574 28.9247 45.4723C29.3486 45.7865 29.7823 46.0923 30.1951 46.4163C30.2993 46.4967 30.4022 46.582 30.5063 46.6661C30.4108 46.7258 30.314 46.7781 30.216 46.8366V46.8342ZM30.8567 46.476C30.6007 46.2957 30.3495 46.0972 30.1045 45.9376C29.7235 45.694 29.3179 45.4869 28.9381 45.2298C28.9614 44.9021 28.9994 44.5745 29.0545 44.248C29.5036 44.7646 29.9981 45.2403 30.5321 45.6696C30.7624 45.8535 30.9743 46.0667 31.2059 46.2531C31.2304 46.2726 31.2573 46.2909 31.2855 46.3091C31.1385 46.3512 30.996 46.408 30.8604 46.4785L30.8567 46.476ZM31.8503 46.0947C31.5636 45.8889 31.2218 45.7183 31.0466 45.5807C30.4022 45.0703 29.7957 44.5221 29.1623 43.997C29.1457 43.9838 29.1249 43.9769 29.1035 43.9775C29.155 43.7205 29.2175 43.4623 29.2922 43.2064C29.2916 43.2092 29.2916 43.2122 29.2922 43.215C29.6426 43.5975 29.9697 44.0007 30.3336 44.3783C30.5688 44.622 30.8347 44.8217 31.0687 45.069C31.2179 45.232 31.39 45.3727 31.5796 45.4869C31.6107 45.5155 31.6497 45.5343 31.6916 45.5408C31.7335 45.5474 31.7764 45.5413 31.8148 45.5234C31.8148 45.5709 31.8148 45.6184 31.8148 45.6659C31.8124 45.7683 31.8286 45.8702 31.8626 45.9668C31.8577 46.0131 31.854 46.0545 31.8503 46.0972V46.0947ZM31.8858 44.65C31.8571 44.789 31.8383 44.9298 31.8295 45.0715C31.6089 44.922 31.4088 44.7447 31.2341 44.544C31.0331 44.332 30.7685 44.1639 30.5529 43.9617C30.1853 43.6145 29.8987 43.2308 29.4503 42.9969C29.4364 42.9897 29.4212 42.9854 29.4056 42.9844C29.39 42.9833 29.3743 42.9855 29.3596 42.9908C29.4539 42.6972 29.5631 42.4086 29.6867 42.1259C29.8399 42.2916 30.0212 42.4402 30.1682 42.6132C30.4063 42.8659 30.6277 43.1336 30.831 43.4147C31.125 43.8618 31.4497 44.2736 31.9152 44.5294C31.9054 44.5708 31.8956 44.611 31.8858 44.6524V44.65ZM32.3759 43.6827C32.3134 43.7607 32.246 43.8375 32.1787 43.9203C32.1374 43.9709 32.1009 44.0251 32.0696 44.0823C31.6359 43.8387 31.2892 43.3088 31.0037 42.936C30.7697 42.6339 30.4524 42.4305 30.1964 42.1393C30.0793 42.026 29.9494 41.9267 29.8092 41.8433C29.9734 41.4937 30.1584 41.1501 30.3544 40.8127C30.9584 41.5436 31.6604 42.1868 32.3146 42.869C32.35 42.907 32.3966 42.9328 32.4478 42.9426C32.4989 42.9525 32.5518 42.9459 32.5989 42.9238C32.5217 43.1772 32.4457 43.4294 32.3808 43.6852L32.3759 43.6827ZM32.6908 42.6631C32.6001 42.2331 32.0439 41.8993 31.7315 41.6459C31.3088 41.3024 30.9217 40.915 30.4929 40.5788C30.6337 40.3461 30.782 40.1159 30.9327 39.8869C31.2316 40.0599 31.4632 40.3997 31.6886 40.6446C32.0748 41.0426 32.5028 41.3983 32.9652 41.7056C32.9938 41.7257 33.0264 41.7394 33.0608 41.7458C32.9297 42.0492 32.8072 42.3537 32.6981 42.6656L32.6908 42.6631ZM33.2311 41.3779C32.8929 40.9552 32.3502 40.7153 31.9508 40.3571C31.7057 40.1415 31.4301 39.748 31.0932 39.6445C31.2831 39.3643 31.4766 39.0878 31.6702 38.8173C31.7535 38.6955 31.8393 38.5859 31.9263 38.4726C32.0488 38.7905 32.3869 39.0817 32.6001 39.2851C32.7927 39.4902 32.9972 39.6838 33.2127 39.865C33.421 40.0282 33.4981 40.1963 33.7787 40.2304C33.8047 40.2346 33.8314 40.2316 33.8559 40.2219C33.6354 40.6007 33.4332 40.9857 33.236 41.3804L33.2311 41.3779ZM33.9906 40.0002C33.9887 39.9702 33.9799 39.941 33.9649 39.9149C33.8069 39.6445 33.5398 39.4764 33.3046 39.2815C33.1465 39.1475 33.0044 38.9988 32.8439 38.8697C32.5989 38.676 32.2852 38.4555 32.164 38.1595C32.3539 37.9159 32.5499 37.6722 32.7483 37.4359C32.7588 37.4625 32.7707 37.4885 32.7839 37.5139C32.7887 37.5225 32.7954 37.53 32.8035 37.5358C32.8381 37.6433 32.8907 37.7442 32.9591 37.8343C33.1698 38.056 33.3781 38.2838 33.5839 38.5103C33.7682 38.7212 33.9735 38.913 34.1965 39.0829C34.2835 39.1535 34.3631 39.2327 34.4342 39.3192C34.2908 39.5458 34.1377 39.7724 33.9955 40.0026L33.9906 40.0002ZM34.7417 38.8734C34.5603 38.6565 34.2639 38.514 34.0519 38.3288C33.84 38.1437 33.6586 37.9634 33.4602 37.7867C33.2617 37.6101 33.1441 37.3774 32.9493 37.1971C33.1147 37.0022 33.285 36.8098 33.4553 36.6197C33.7831 36.9167 34.0882 37.2376 34.368 37.5797C34.5988 37.8578 34.8592 38.1102 35.1447 38.3325C35.0108 38.512 34.8781 38.6931 34.7466 38.8758L34.7417 38.8734ZM35.4081 37.9999C35.2305 37.7636 34.9414 37.5833 34.7294 37.4006C34.5371 37.2325 34.3692 37.0351 34.1805 36.8585C34.0058 36.7033 33.823 36.5574 33.6329 36.4212C33.8436 36.1897 34.058 35.9583 34.2737 35.7317C34.2688 35.7419 34.2663 35.7531 34.2665 35.7643C34.2667 35.7756 34.2695 35.7867 34.2747 35.7968C34.2799 35.8068 34.2874 35.8155 34.2966 35.8222C34.3058 35.8288 34.3164 35.8333 34.3276 35.8352C34.8041 35.957 35.0761 36.426 35.353 36.7891C35.4228 36.8816 35.8333 37.3397 36.0219 37.2763C35.8145 37.5127 35.6115 37.7563 35.413 38.0072L35.4081 37.9999ZM36.7252 36.5162C36.5095 36.733 36.3 36.9584 36.0955 37.1886C36.1037 37.1653 36.1095 37.1412 36.1126 37.1167C36.1457 36.8731 35.8247 36.6563 35.6764 36.5077C35.4939 36.3201 35.3273 36.1251 35.1386 35.9449C34.923 35.7426 34.6485 35.5295 34.3508 35.6549C34.6265 35.3638 34.9058 35.0787 35.1864 34.7925C35.3273 34.8997 35.4143 35.0909 35.5196 35.2273C35.649 35.3864 35.7864 35.5389 35.9313 35.6842C36.1763 35.9424 36.4213 36.2543 36.7252 36.4443C36.7412 36.4554 36.7597 36.4625 36.7791 36.465C36.7656 36.4821 36.7472 36.4991 36.7301 36.5186L36.7252 36.5162ZM36.9776 36.2652C36.9757 36.2459 36.9707 36.227 36.9629 36.2092C36.7742 35.8328 36.3295 35.5258 36.0219 35.2407C35.8186 35.0519 35.6201 34.7194 35.342 34.6317C35.587 34.388 35.8259 34.1444 36.0697 33.9007C36.0617 33.9147 36.0565 33.9301 36.0545 33.9461C36.0525 33.9621 36.0536 33.9783 36.058 33.9939C36.0623 34.0094 36.0697 34.0239 36.0797 34.0366C36.0897 34.0492 36.1021 34.0598 36.1163 34.0676C36.2596 34.1444 36.4299 34.4587 36.5059 34.5732C36.6174 34.7449 36.7644 34.8936 36.8832 35.0605C37.0547 35.3041 37.2887 35.6452 37.6183 35.6549C37.4039 35.8535 37.192 36.0581 36.9861 36.2677L36.9776 36.2652ZM38.395 34.9618C38.2039 35.1214 38.0177 35.287 37.8327 35.4491C37.8309 35.3923 37.8107 35.3376 37.7751 35.2931C37.6818 35.2084 37.5823 35.1306 37.4774 35.0605C37.2985 34.896 37.1479 34.6889 36.9874 34.5074C36.8269 34.3259 36.6566 34.1553 36.4899 33.9799C36.4128 33.8971 36.3576 33.8118 36.2449 33.7935C36.2166 33.7903 36.1879 33.7958 36.1628 33.8094C36.3736 33.5982 36.5835 33.3871 36.7926 33.1759C36.8055 33.1906 36.8233 33.2002 36.8428 33.2027C37.0878 33.2429 37.1515 33.433 37.2544 33.6303C37.3908 33.867 37.5669 34.0788 37.7751 34.2565C37.9123 34.3783 38.0471 34.5074 38.1904 34.628C38.2958 34.7169 38.3583 34.829 38.4514 34.9179L38.395 34.9618ZM38.8067 34.6317C38.6143 34.2077 37.9993 33.9081 37.7212 33.5743C37.4688 33.2722 37.3341 32.9993 36.9567 33.0054C37.2263 32.7317 37.4933 32.4568 37.758 32.1807C38.0153 32.4341 38.264 32.6972 38.5065 32.9652C38.8104 33.3002 39.1669 33.6157 39.3825 34.0201C39.4059 34.0642 39.4428 34.0996 39.4879 34.1212C39.2588 34.2942 39.0309 34.4623 38.8067 34.6353V34.6317ZM40.31 33.489C40.1507 33.6206 39.9877 33.746 39.8199 33.8703C39.8182 33.8647 39.8157 33.8594 39.8125 33.8545C39.7882 33.8092 39.7608 33.7656 39.7305 33.7241C39.2857 33.0444 38.5825 32.4877 37.9307 31.9955C38.0532 31.8737 38.1672 31.7519 38.2836 31.6227C38.4624 31.4303 38.6389 31.239 38.8153 31.0453C38.9255 31.1745 39.0321 31.345 39.1363 31.4522C39.3029 31.624 39.3813 31.8396 39.5675 31.9979C39.9559 32.3342 40.2242 32.8409 40.6701 33.1126C40.689 33.1234 40.711 33.1277 40.7326 33.1248C40.5946 33.2515 40.4537 33.3741 40.31 33.4927V33.489ZM40.9286 32.953C40.938 32.925 40.9409 32.8953 40.9373 32.866C40.9337 32.8367 40.9236 32.8086 40.9078 32.7837C40.5525 32.2684 39.9706 31.9175 39.5981 31.4096C39.4756 31.2427 39.2563 31.133 39.1497 30.9613C39.118 30.9064 39.0765 30.8576 39.0272 30.8175C39.2588 30.5629 39.4891 30.3059 39.7145 30.0476C39.8064 30.1617 39.9067 30.2688 40.0147 30.368C40.2181 30.5629 40.3308 30.8431 40.5538 31.021C40.9789 31.3633 41.2509 31.9029 41.6956 32.2038C41.4497 32.4645 41.1941 32.7155 40.9286 32.9567V32.953ZM43.4659 29.7516C43.2609 30.15 43.0284 30.5339 42.77 30.9004C42.5507 30.5702 42.1403 30.2572 41.9124 30.0476C41.6846 29.8381 41.3918 29.6371 41.1345 29.4276C40.9666 29.2911 40.898 29.1693 40.6714 29.1669C40.5758 29.1669 40.4876 29.3058 40.593 29.3606C40.7633 29.4519 40.8919 29.6651 41.0254 29.8064C41.2092 29.9977 41.4273 30.1634 41.6196 30.3449C41.9088 30.6177 42.1562 31.0307 42.4772 31.2902C42.3069 31.5107 42.1293 31.7239 41.9431 31.9334C41.8438 31.5545 41.4003 31.2195 41.1259 30.9771C40.9041 30.781 40.6787 30.597 40.4766 30.379C40.3099 30.1999 40.0441 30.0318 39.8922 29.8405C40.3994 29.2534 40.8894 28.6528 41.3513 28.0291C41.6074 27.6831 41.8414 27.3287 42.0693 26.9693C42.288 27.2668 42.4885 27.5772 42.6696 27.8988C42.873 28.2557 43.3422 28.4847 43.4672 28.8855C43.4796 28.9239 43.5021 28.9582 43.5324 28.985C43.5628 29.0117 43.5997 29.0299 43.6395 29.0376C43.6793 29.0453 43.7205 29.0423 43.7587 29.0288C43.7969 29.0154 43.8307 28.9919 43.8567 28.961C43.7244 29.2363 43.6019 29.4946 43.4659 29.7553V29.7516ZM43.9131 28.8477C43.9138 28.8356 43.9138 28.8234 43.9131 28.8112C43.9131 28.4457 43.423 28.0169 43.1449 27.8171C42.9403 27.671 42.7945 27.3981 42.6365 27.2081C42.5018 27.0453 42.3578 26.8903 42.2053 26.7439C42.3682 26.4747 42.5226 26.2006 42.6708 25.9241C42.6916 25.9616 42.7154 25.9975 42.7419 26.0313C42.8962 26.2225 43.0727 26.3967 43.2184 26.5917C43.3642 26.7866 43.5051 26.9937 43.6374 27.2007C43.7869 27.4298 43.978 27.621 44.1275 27.8439C44.1403 27.8854 44.1661 27.9218 44.2012 27.9476C44.2362 27.9735 44.2787 27.9875 44.3223 27.9877C44.1892 28.2752 44.0528 28.5631 43.9131 28.8514V28.8477ZM44.6286 27.3579L44.5196 27.5845C44.397 27.3981 44.2329 27.2604 44.0859 27.0789C43.8923 26.8353 43.7183 26.5819 43.5088 26.348C43.2993 26.1141 42.9991 25.9034 42.8386 25.6171C43.0028 25.2955 43.1584 24.9703 43.3079 24.6426C43.4855 24.8107 43.6632 25.0665 43.7832 25.1956C43.9572 25.3844 44.1177 25.5818 44.2892 25.773C44.4464 25.9245 44.5957 26.0838 44.7364 26.2506C44.8193 26.3683 44.9241 26.4692 45.0451 26.5478C44.9018 26.8182 44.7621 27.0875 44.6286 27.3615V27.3579ZM45.2644 26.1202C45.1297 25.9874 45.0353 25.8193 44.8797 25.7073C44.6698 25.5359 44.4717 25.3507 44.2868 25.153C44.0283 24.9093 43.7502 24.6767 43.5015 24.4221C43.4798 24.3993 43.4564 24.3781 43.4316 24.3587C43.4953 24.2125 43.5541 24.0676 43.6191 23.9202C43.684 23.7728 43.7416 23.6071 43.8016 23.4512C44.2855 23.6339 44.6421 24.3417 44.979 24.7059C45.1897 24.9337 45.4053 25.1554 45.6357 25.3601C45.518 25.6183 45.3931 25.8729 45.2644 26.1239V26.1202ZM45.8366 24.902C45.6185 24.7205 45.4213 24.5086 45.2081 24.321C44.8405 23.9981 44.4203 23.2843 43.8837 23.2246C44.0062 22.892 44.1055 22.5558 44.1986 22.2159C44.4754 22.6301 44.794 23.0187 45.1003 23.4122C45.2672 23.6412 45.4718 23.8405 45.7055 24.0018C45.8721 24.1053 45.9505 24.2211 46.073 24.3063C45.9983 24.5037 45.9199 24.7023 45.8366 24.8996V24.902ZM46.0877 23.6534C45.8239 23.4773 45.5929 23.2567 45.4053 23.0017C45.0672 22.5753 44.6237 22.2342 44.3027 21.792C44.4498 21.1763 44.5591 20.5523 44.6298 19.9233C44.8748 20.279 45.284 20.5848 45.5573 20.8711C45.757 21.0806 45.9873 21.1744 46.1943 21.3669C46.2617 21.429 46.4884 21.5679 46.5435 21.6239C46.5702 21.6823 46.6191 21.7279 46.6794 21.7507C46.7397 21.7735 46.8067 21.7717 46.8657 21.7457C46.8045 22.0003 46.7432 22.2549 46.6685 22.5071C45.9799 22.0198 45.3526 21.4314 44.6764 20.9235C44.5722 20.8455 44.4179 20.9685 44.5036 21.0782C44.7897 21.4657 45.1291 21.8114 45.5119 22.1051C45.8635 22.3573 46.1527 22.6849 46.5067 22.9335L46.5361 22.9566C46.4479 23.2441 46.3536 23.5283 46.2531 23.8093C46.2068 23.7481 46.151 23.6947 46.0877 23.651V23.6534Z" fill="#011368"/>
<path d="M32.5597 58.859C32.5339 58.3948 32.5143 57.9295 32.5143 57.4641C32.5143 56.9988 32.4996 56.5371 32.5352 56.0754C32.5915 55.3445 32.9284 54.6209 32.6577 53.8888C32.6289 53.8276 32.5803 53.7778 32.5196 53.7473C32.459 53.7169 32.3898 53.7075 32.3232 53.7207C32.3118 53.7196 32.3003 53.7196 32.2889 53.7207C32.2454 53.705 32.1992 53.6979 32.1529 53.7C32.0918 53.7077 32.0321 53.7237 31.9753 53.7475C31.9411 53.7587 31.9089 53.7752 31.8797 53.7962C31.7818 53.8262 31.6819 53.8494 31.5808 53.8656C31.3824 53.8631 31.1841 53.8761 30.9878 53.9046C30.8371 53.9046 30.6827 53.8949 30.5296 53.8875C29.9893 53.8583 29.4564 53.8425 28.9173 53.7877C28.2325 53.7158 27.539 53.7328 26.8578 53.6366C26.3016 53.5574 25.7552 53.3247 25.1904 53.3053C24.6979 53.2986 24.2093 53.3923 23.7545 53.5806C23.1206 53.8079 22.4708 53.9887 21.8102 54.1214C21.1585 54.264 20.4099 54.5795 19.7434 54.6087C19.4316 54.6256 19.1243 54.6914 18.8331 54.8036C18.8025 54.7805 18.6641 54.772 18.6677 54.8365C18.3823 54.8243 18.1311 54.9047 17.9179 55.2799C17.6545 55.7392 17.7501 56.4031 17.7954 56.9025C17.8616 57.7078 17.8297 58.5239 17.8322 59.3316C17.8322 60.428 17.8322 61.5304 17.8408 62.6292C17.8408 63.5051 17.7722 64.448 17.9633 65.3165C17.9606 65.5389 17.9413 65.7609 17.9057 65.9804H17.7317C17.6558 65.9804 17.6692 66.084 17.7317 66.0937C17.7969 66.103 17.8615 66.1156 17.9253 66.1315C17.9483 66.1661 17.9794 66.1945 18.016 66.2143C18.6984 66.553 19.5682 66.6785 20.3217 66.6906C20.8252 66.698 21.3324 66.6309 21.8372 66.6249C22.342 66.6188 22.8247 66.7783 23.3221 66.7991C24.165 66.8356 25.0164 66.8125 25.8618 66.8125C26.6496 67.0561 27.5157 66.9988 28.3341 66.9623C28.3627 66.9743 28.3928 66.9821 28.4236 66.9854C28.4971 66.9854 28.5706 66.9952 28.6429 66.9976C28.7095 66.9951 28.773 66.9692 28.8223 66.9247C28.8716 66.8801 28.9035 66.8196 28.9124 66.754C29.0363 66.6691 29.1477 66.5675 29.2432 66.4519C29.7112 65.9281 30.3936 65.565 31.0344 65.2812C31.4399 65.1021 31.8197 64.8634 32.2068 64.6514C32.8415 64.3042 32.6895 62.3052 32.6883 61.6303C32.6871 60.7081 32.6111 59.7823 32.5597 58.859ZM30.722 54.9547C30.8594 54.9168 30.9909 54.8603 31.1128 54.7866C30.9941 54.891 30.8939 55.0146 30.8163 55.152C30.5798 55.5297 30.3716 55.9292 30.1425 56.3129C29.9134 56.6967 29.6904 57.1328 29.4172 57.5116C29.1942 57.8211 29.0386 58.2218 28.8107 58.5337C28.8315 58.1049 28.8634 57.681 28.8916 57.2485C29.1489 57.0122 29.3571 56.6894 29.6009 56.4396C29.997 56.0276 30.3009 55.5369 30.4928 54.9997C30.5713 54.9863 30.646 54.9705 30.7207 54.9547H30.722ZM29.3375 55.8537C29.215 56.0389 29.0766 56.2082 28.9418 56.3836C28.9602 55.9767 28.9688 55.5699 28.9541 55.1654C29.2481 55.1532 29.5409 55.1338 29.8325 55.1009C29.7137 55.3652 29.4944 55.6137 29.3363 55.8537H29.3375ZM25.9316 54.1385C25.9378 54.1273 25.9427 54.1154 25.9463 54.1032C26.1767 54.158 26.4082 54.1994 26.6422 54.236C26.5323 54.3152 26.4302 54.4045 26.3372 54.5027C26.1889 54.6635 26.0088 54.9547 25.7626 54.9632C25.7354 54.9671 25.7098 54.978 25.6883 54.9949C25.6668 55.0118 25.6501 55.0341 25.64 55.0594C25.3203 55.0887 25.0005 55.1106 24.6795 55.1216L24.9148 54.9181C25.0962 54.7517 25.2922 54.6017 25.5004 54.4698C25.6707 54.37 25.8275 54.3127 25.9304 54.1385H25.9316ZM23.8183 54.5856C24.0964 54.3919 24.5362 54.2396 24.7788 53.9679C24.9833 53.9567 25.1885 53.9657 25.3913 53.9947C25.341 54.0316 25.2882 54.0649 25.2333 54.0946C25.032 54.2129 24.8502 54.3612 24.6942 54.5344C24.5448 54.6928 24.4026 54.8597 24.2642 55.0278C24.2343 55.0636 24.2024 55.0977 24.1686 55.1301C23.8219 55.1301 23.4777 55.1228 23.1322 55.1009C23.3784 54.9547 23.5806 54.7512 23.817 54.5856H23.8183ZM22.0883 54.6818C22.4436 54.6075 22.8161 54.5429 23.1763 54.4491C23.0293 54.571 22.8859 54.705 22.7315 54.8146C22.6369 54.8786 22.5509 54.9543 22.4755 55.04C22.3346 55.0241 22.1913 55.0071 22.0504 54.9876C21.6848 54.94 21.3164 54.9168 20.9477 54.9181C21.3275 54.8402 21.7073 54.7614 22.0871 54.6818H22.0883ZM28.4787 63.488C28.4603 64.2896 28.3807 65.0899 28.3562 65.8927C28.3357 65.8586 28.3063 65.8307 28.2712 65.8118C28.236 65.7929 28.1964 65.7839 28.1565 65.7855C27.354 65.7587 26.5503 65.6747 25.7479 65.7344C24.6391 65.816 23.6112 66.207 22.4853 66.1096C21.6485 66.0377 20.8485 65.9878 20.0056 65.9963C19.5278 65.9963 19.05 65.9804 18.5734 65.9731H18.5464C18.4679 65.9609 18.3947 65.9262 18.3357 65.8732C18.3675 65.8598 18.3937 65.8362 18.4104 65.8062C18.427 65.7761 18.4331 65.7414 18.4276 65.7076C18.4276 65.6454 18.419 65.5858 18.4154 65.5188C18.4148 65.4797 18.3995 65.4423 18.3725 65.414C18.2304 64.5795 18.3161 63.6976 18.3259 62.8558C18.3369 61.8362 18.3259 60.8166 18.3345 59.7957C18.3345 58.9722 18.3541 58.1487 18.3406 57.3253C18.3308 56.7564 18.2083 56.1923 18.3406 55.632C18.4497 55.1679 18.8442 55.3274 19.1896 55.4164C19.4996 55.4968 19.8255 55.4773 20.1416 55.4846C21.0188 55.5029 21.8568 55.6296 22.7315 55.6978C24.6072 55.8332 26.4927 55.6866 28.3243 55.2629C28.3331 55.2755 28.3429 55.2873 28.3537 55.2982C28.4309 57.0439 28.1197 58.7895 28.2619 60.5364C28.3378 61.5292 28.5008 62.4843 28.4775 63.488H28.4787ZM28.3109 54.56C28.2633 54.56 28.2164 54.571 28.1739 54.5921C28.1314 54.6133 28.0944 54.644 28.0658 54.6818C27.5133 54.8036 26.9632 54.9011 26.3984 54.9754C26.6912 54.7598 26.951 54.482 27.3062 54.3663C27.3332 54.3575 27.3578 54.3429 27.3785 54.3237C27.9911 54.3834 28.6123 54.4114 29.2273 54.4638L29.1048 54.5174C28.8401 54.5417 28.5751 54.5559 28.3096 54.56H28.3109ZM28.8928 60.8616C28.8928 60.8397 28.8867 60.8178 28.8842 60.7959C28.9855 60.6859 29.0994 60.5882 29.2236 60.5047C29.4187 60.3126 29.5951 60.1026 29.7504 59.8774C30.2034 59.3384 30.6107 58.7631 30.9682 58.1573C31.2753 57.6188 31.5693 57.0727 31.8503 56.5188C31.8662 56.4884 31.8809 56.4555 31.8956 56.4238C31.8956 56.4384 31.8956 56.4518 31.8956 56.4652C31.8678 56.9929 31.8715 57.5217 31.9067 58.0489C31.9067 58.128 31.9067 58.2084 31.9067 58.2925C31.6543 58.4813 31.3713 58.887 31.272 58.9869C30.9756 59.2829 30.7195 59.6337 30.4426 59.948C30.0996 60.339 29.8043 60.7593 29.498 61.1759C29.3314 61.4037 29.1219 61.6084 29.008 61.8545C28.9786 61.5182 28.9418 61.1893 28.8916 60.8616H28.8928ZM29.0398 62.3831C29.0593 62.3901 29.0801 62.393 29.1008 62.3916C29.1214 62.3902 29.1416 62.3846 29.16 62.3751C29.1784 62.3656 29.1946 62.3524 29.2077 62.3364C29.2207 62.3204 29.2303 62.3019 29.2358 62.282C29.2861 62.1529 29.6744 61.7862 29.7982 61.6328C30.0065 61.3721 30.216 61.1114 30.4193 60.8458C30.722 60.4511 31.0748 60.0966 31.3995 59.7251C31.5011 59.6094 31.7143 59.4193 31.9103 59.2013V59.3487C31.9103 59.6764 31.9103 60.0028 31.9165 60.3305C31.8038 60.4682 31.4619 60.7788 31.359 60.8982C31.054 61.2539 30.7587 61.6145 30.4573 61.9726C29.9954 62.522 29.5189 63.058 29.0558 63.6062C29.0619 63.1981 29.0582 62.79 29.0386 62.3831H29.0398ZM31.6849 64.2104C31.31 64.4224 30.9364 64.6417 30.5553 64.8414C30.6264 64.7574 30.6987 64.677 30.7734 64.5978C30.9217 64.4516 30.9964 64.2421 31.1471 64.091C31.2978 63.94 31.56 63.8352 31.669 63.6488L31.6788 63.6318C31.676 63.6539 31.6781 63.6763 31.6849 63.6976C31.6983 63.7393 31.7146 63.78 31.7339 63.8194C31.7078 63.948 31.691 64.0782 31.6837 64.2092L31.6849 64.2104ZM31.5514 62.7072C31.3198 63.1116 31.0613 63.3674 30.7391 63.6988C30.4426 64.0058 30.2233 64.3822 29.955 64.7135C29.71 65.0132 29.5287 65.4444 29.1746 65.6308C29.158 65.6394 29.1432 65.6512 29.1313 65.6655C29.1193 65.6799 29.1104 65.6965 29.105 65.7143C29.0996 65.7322 29.0979 65.7509 29.1 65.7694C29.1021 65.7879 29.1078 65.8058 29.117 65.8221C29.0607 65.8927 29.0092 65.9707 28.9565 66.0474C28.9933 65.3823 29.0312 64.7208 29.0496 64.0581C29.0788 64.0649 29.1094 64.0619 29.1366 64.0496C29.4846 63.9181 29.7357 63.5831 29.9942 63.3272C30.4034 62.9167 30.7881 62.4745 31.1704 62.0433C31.4276 61.7497 31.6763 61.4512 31.9397 61.1625C31.9483 61.4427 31.9618 61.7229 31.9826 62.0031C31.9826 62.0664 31.9888 62.1249 31.9826 62.1907C31.7793 62.2979 31.6714 62.4928 31.5502 62.706L31.5514 62.7072ZM31.9471 54.8182C31.7082 55.0619 31.6567 55.5272 31.5207 55.833C31.261 56.4177 30.9621 56.9817 30.6631 57.5458C30.2676 58.2514 29.8285 58.932 29.3486 59.5838C29.204 59.7884 28.9945 60.026 28.8291 60.2757C28.7925 59.8072 28.7835 59.337 28.8021 58.8675C29.0472 58.8273 29.2273 58.6007 29.3706 58.407C29.7382 57.9197 30.091 57.441 30.423 56.9269C30.7906 56.3544 31.0993 55.5504 31.631 55.1082C31.7952 54.9705 31.7021 54.7147 31.5305 54.6453C31.6874 54.5917 31.843 54.5344 31.9986 54.4698C32.033 54.4548 32.0646 54.4337 32.0917 54.4077L32.1578 54.3858C32.1718 54.4842 32.1772 54.5837 32.1737 54.683C32.0849 54.701 32.0049 54.7487 31.9471 54.8182Z" fill="#011368"/>
<path d="M43.2024 29.3424C43.0554 29.0013 42.6401 28.765 42.3754 28.5177C42.2443 28.3959 42.139 28.1985 41.9993 28.0926C41.8891 28.0061 41.7543 27.9549 41.6428 27.8757C41.5313 27.7965 41.3635 27.9975 41.4639 28.0986C41.5644 28.1998 41.7273 28.2716 41.7959 28.3837C41.8809 28.5249 41.9764 28.6597 42.0814 28.7869C42.3271 29.0785 42.5955 29.3506 42.8839 29.6007C43.0615 29.7554 43.2833 29.53 43.2024 29.3424Z" fill="#011368"/>
</g>
<defs>
<clipPath id="clip0_250_317">
<rect width="48" height="67" fill="white"/>
</clipPath>
</defs>
</svg>
