<svg width="636" height="649" viewBox="0 0 636 649" fill="none" xmlns="http://www.w3.org/2000/svg">
<line x1="0.646447" y1="632.47" x2="632.47" y2="0.64642" stroke="#011368" stroke-opacity="0.5"/>
<line x1="24.2293" y1="639.917" x2="634.951" y2="29.1956" stroke="#011368" stroke-opacity="0.5"/>
<line x1="57.7446" y1="634.952" x2="634.951" y2="57.7456" stroke="#011368" stroke-opacity="0.5"/>
<line x1="85.0533" y1="638.676" x2="634.951" y2="88.7781" stroke="#011368" stroke-opacity="0.5"/>
<line x1="116.086" y1="638.676" x2="634.951" y2="119.811" stroke="#011368" stroke-opacity="0.5"/>
<line x1="153.325" y1="632.469" x2="634.951" y2="150.843" stroke="#011368" stroke-opacity="0.5"/>
<line x1="180.634" y1="636.193" x2="634.951" y2="181.876" stroke="#011368" stroke-opacity="0.5"/>
<line x1="211.666" y1="636.193" x2="634.951" y2="212.909" stroke="#011368" stroke-opacity="0.5"/>
<line x1="245.181" y1="633.711" x2="634.951" y2="243.941" stroke="#011368" stroke-opacity="0.5"/>
<line x1="272.49" y1="637.434" x2="634.951" y2="274.974" stroke="#011368" stroke-opacity="0.5"/>
<line x1="309.729" y1="631.228" x2="634.951" y2="306.006" stroke="#011368" stroke-opacity="0.5"/>
<line x1="328.349" y1="643.641" x2="634.951" y2="337.039" stroke="#011368" stroke-opacity="0.5"/>
<line x1="354.416" y1="648.606" x2="634.951" y2="368.072" stroke="#011368" stroke-opacity="0.5"/>
<line x1="387.931" y1="646.124" x2="634.951" y2="399.104" stroke="#011368" stroke-opacity="0.5"/>
<line x1="427.653" y1="637.434" x2="634.951" y2="430.137" stroke="#011368" stroke-opacity="0.5"/>
<line x1="457.444" y1="638.676" x2="634.951" y2="461.169" stroke="#011368" stroke-opacity="0.5"/>
<line x1="490.96" y1="636.193" x2="634.951" y2="492.202" stroke="#011368" stroke-opacity="0.5"/>
<line x1="519.51" y1="638.676" x2="634.951" y2="523.234" stroke="#011368" stroke-opacity="0.5"/>
<line x1="549.301" y1="639.917" x2="634.951" y2="554.267" stroke="#011368" stroke-opacity="0.5"/>
</svg>
