<svg width="340" height="315" viewBox="0 0 340 315" fill="none" xmlns="http://www.w3.org/2000/svg">
<line y1="-0.5" x2="554.591" y2="-0.5" transform="matrix(-0.707107 -0.707107 -0.707107 0.707107 338.695 393.155)" stroke="white" stroke-opacity="0.8"/>
<line y1="-0.5" x2="536.069" y2="-0.5" transform="matrix(-0.707107 -0.707107 -0.707107 0.707107 324.059 397.777)" stroke="white" stroke-opacity="0.8"/>
<line y1="-0.5" x2="506.65" y2="-0.5" transform="matrix(-0.707107 -0.707107 -0.707107 0.707107 303.258 394.696)" stroke="white" stroke-opacity="0.8"/>
<line y1="-0.5" x2="482.68" y2="-0.5" transform="matrix(-0.707107 -0.707107 -0.707107 0.707107 286.305 397.007)" stroke="white" stroke-opacity="0.8"/>
<line y1="-0.5" x2="455.44" y2="-0.5" transform="matrix(-0.707107 -0.707107 -0.707107 0.707107 267.047 397.007)" stroke="white" stroke-opacity="0.8"/>
<line y1="-0.5" x2="422.753" y2="-0.5" transform="matrix(-0.707107 -0.707107 -0.707107 0.707107 243.93 393.155)" stroke="white" stroke-opacity="0.8"/>
<line y1="-0.5" x2="398.783" y2="-0.5" transform="matrix(-0.707107 -0.707107 -0.707107 0.707107 226.98 395.467)" stroke="white" stroke-opacity="0.8"/>
<line y1="-0.5" x2="371.544" y2="-0.5" transform="matrix(-0.707107 -0.707107 -0.707107 0.707107 207.719 395.467)" stroke="white" stroke-opacity="0.8"/>
<line y1="-0.5" x2="342.125" y2="-0.5" transform="matrix(-0.707107 -0.707107 -0.707107 0.707107 186.922 393.926)" stroke="white" stroke-opacity="0.8"/>
<line y1="-0.5" x2="318.155" y2="-0.5" transform="matrix(-0.707107 -0.707107 -0.707107 0.707107 169.969 396.237)" stroke="white" stroke-opacity="0.8"/>
<line y1="-0.5" x2="285.467" y2="-0.5" transform="matrix(-0.707107 -0.707107 -0.707107 0.707107 146.855 392.384)" stroke="white" stroke-opacity="0.8"/>
<line y1="-0.5" x2="269.124" y2="-0.5" transform="matrix(-0.707107 -0.707107 -0.707107 0.707107 135.297 400.089)" stroke="white" stroke-opacity="0.8"/>
<line y1="-0.5" x2="246.243" y2="-0.5" transform="matrix(-0.707107 -0.707107 -0.707107 0.707107 119.121 403.171)" stroke="white" stroke-opacity="0.8"/>
<line y1="-0.5" x2="216.825" y2="-0.5" transform="matrix(-0.707107 -0.707107 -0.707107 0.707107 98.3164 401.63)" stroke="white" stroke-opacity="0.8"/>
<line y1="-0.5" x2="181.958" y2="-0.5" transform="matrix(-0.707107 -0.707107 -0.707107 0.707107 73.6641 396.237)" stroke="white" stroke-opacity="0.8"/>
<line y1="-0.5" x2="155.809" y2="-0.5" transform="matrix(-0.707107 -0.707107 -0.707107 0.707107 55.1719 397.007)" stroke="white" stroke-opacity="0.8"/>
<line y1="-0.5" x2="126.39" y2="-0.5" transform="matrix(-0.707107 -0.707107 -0.707107 0.707107 34.3711 395.467)" stroke="white" stroke-opacity="0.8"/>
</svg>
