<svg width="202" height="175" viewBox="0 0 202 175" fill="none" xmlns="http://www.w3.org/2000/svg">
<line y1="-0.5" x2="296.484" y2="-0.5" transform="matrix(-0.707107 -0.707107 -0.707107 0.707107 200.469 210.646)" stroke="white" stroke-opacity="0.8"/>
<line y1="-0.5" x2="286.582" y2="-0.5" transform="matrix(-0.707107 -0.707107 -0.707107 0.707107 192.645 213.117)" stroke="white" stroke-opacity="0.8"/>
<line y1="-0.5" x2="270.855" y2="-0.5" transform="matrix(-0.707107 -0.707107 -0.707107 0.707107 181.523 211.47)" stroke="white" stroke-opacity="0.8"/>
<line y1="-0.5" x2="258.04" y2="-0.5" transform="matrix(-0.707107 -0.707107 -0.707107 0.707107 172.461 212.705)" stroke="white" stroke-opacity="0.8"/>
<line y1="-0.5" x2="243.478" y2="-0.5" transform="matrix(-0.707107 -0.707107 -0.707107 0.707107 162.164 212.705)" stroke="white" stroke-opacity="0.8"/>
<line y1="-0.5" x2="226.003" y2="-0.5" transform="matrix(-0.707107 -0.707107 -0.707107 0.707107 149.809 210.646)" stroke="white" stroke-opacity="0.8"/>
<line y1="-0.5" x2="213.189" y2="-0.5" transform="matrix(-0.707107 -0.707107 -0.707107 0.707107 140.748 211.881)" stroke="white" stroke-opacity="0.8"/>
<line y1="-0.5" x2="198.627" y2="-0.5" transform="matrix(-0.707107 -0.707107 -0.707107 0.707107 130.449 211.881)" stroke="white" stroke-opacity="0.8"/>
<line y1="-0.5" x2="182.9" y2="-0.5" transform="matrix(-0.707107 -0.707107 -0.707107 0.707107 119.33 211.058)" stroke="white" stroke-opacity="0.8"/>
<line y1="-0.5" x2="170.085" y2="-0.5" transform="matrix(-0.707107 -0.707107 -0.707107 0.707107 110.268 212.293)" stroke="white" stroke-opacity="0.8"/>
<line y1="-0.5" x2="152.611" y2="-0.5" transform="matrix(-0.707107 -0.707107 -0.707107 0.707107 97.9121 210.233)" stroke="white" stroke-opacity="0.8"/>
<line y1="-0.5" x2="143.873" y2="-0.5" transform="matrix(-0.707107 -0.707107 -0.707107 0.707107 91.7344 214.353)" stroke="white" stroke-opacity="0.8"/>
<line y1="-0.5" x2="131.641" y2="-0.5" transform="matrix(-0.707107 -0.707107 -0.707107 0.707107 83.084 216)" stroke="white" stroke-opacity="0.8"/>
<line y1="-0.5" x2="115.914" y2="-0.5" transform="matrix(-0.707107 -0.707107 -0.707107 0.707107 71.9648 215.177)" stroke="white" stroke-opacity="0.8"/>
<line y1="-0.5" x2="97.2746" y2="-0.5" transform="matrix(-0.707107 -0.707107 -0.707107 0.707107 58.7834 212.293)" stroke="white" stroke-opacity="0.8"/>
<line y1="-0.5" x2="83.295" y2="-0.5" transform="matrix(-0.707107 -0.707107 -0.707107 0.707107 48.8987 212.705)" stroke="white" stroke-opacity="0.8"/>
<line y1="-0.5" x2="67.568" y2="-0.5" transform="matrix(-0.707107 -0.707107 -0.707107 0.707107 37.7773 211.881)" stroke="white" stroke-opacity="0.8"/>
<line y1="-0.5" x2="54.1709" y2="-0.5" transform="matrix(-0.707107 -0.707107 -0.707107 0.707107 28.3044 212.705)" stroke="white" stroke-opacity="0.8"/>
</svg>
