<svg width="25" height="25" viewBox="0 0 25 25" fill="none" xmlns="http://www.w3.org/2000/svg">
<path d="M24.5 17.3582L22.7523 18.1148L22.5935 20.0606L21.3546 18.5827L19.5087 19.0285L20.4909 17.3585L19.5087 15.6884L21.3546 16.1342L22.5935 14.6564L22.7523 16.6021L24.5 17.3582ZM2.40646 20.0606L3.64538 18.5827L5.49128 19.0285L4.50908 17.3585L5.49128 15.6884L3.64538 16.1342L2.40646 14.6564L2.24769 16.6021L0.5 17.3588L2.24769 18.1154L2.40646 20.0606ZM18.1504 11.5392L18.6027 13.4354L19.6017 11.7761L21.4925 11.9191L20.2687 10.4278L20.9849 8.6199L19.2294 9.35749L17.7813 8.09715L17.9201 10.0444L16.3089 11.0732L18.1504 11.5392ZM8.27883 22H16.7215C16.8825 22 17.0083 21.8616 16.9979 21.6963C16.8446 19.2836 14.8799 17.3582 12.5 17.3582C10.1201 17.3582 8.15541 19.2833 8.00214 21.6963C7.99171 21.8616 8.11774 22 8.27883 22ZM10.0639 14.301C10.0639 15.6867 11.1545 16.8097 12.5 16.8097C13.8455 16.8097 14.9361 15.6867 14.9361 14.301C14.9361 12.9153 13.8455 11.7922 12.5 11.7922C11.1548 11.7922 10.0639 12.9156 10.0639 14.301ZM10.8783 10.1401L12.5 9.12864L14.1217 10.1401L13.6888 8.23918L15.1238 6.96332L13.2345 6.79981L12.4997 5L11.7649 6.79981L9.87557 6.96332L11.3109 8.23918L10.8783 10.1401ZM5.39828 11.7758L6.39729 13.4351L6.84957 11.5389L8.69084 11.0732L7.07962 10.0444L7.2184 8.09715L5.7703 9.35749L4.01479 8.6199L4.73102 10.4278L3.50717 11.9191L5.39828 11.7758Z" fill="#011368"/>
</svg>
