<svg width="25" height="25" viewBox="0 0 25 25" fill="none" xmlns="http://www.w3.org/2000/svg">
<path d="M22.9883 7.07882C22.8156 7.16427 22.6429 7.25216 22.4678 7.33761C21.707 7.71603 20.9488 8.09444 20.1906 8.47286C19.7776 8.67794 19.3672 8.88302 18.9543 9.0881V7.05196C18.9543 7.04464 18.9543 7.03976 18.9543 7.03243C18.9543 7.02755 18.9543 7.02023 18.9518 7.01534C18.9518 7.00802 18.9493 7.00314 18.9493 6.99581C18.9493 6.99093 18.9468 6.9836 18.9468 6.97872C18.9393 6.93966 18.9243 6.90304 18.9043 6.86886C18.8993 6.86153 18.8968 6.85665 18.8918 6.84933C18.8868 6.83956 18.8793 6.83224 18.8718 6.82247C18.8693 6.81759 18.8643 6.81271 18.8618 6.80782C18.8568 6.80294 18.8517 6.79562 18.8442 6.79073C18.8417 6.78829 18.8392 6.78585 18.8367 6.78341C18.8342 6.78097 18.8317 6.77853 18.8267 6.77608C18.8192 6.7712 18.8142 6.76388 18.8067 6.759C18.8017 6.75411 18.7942 6.75167 18.7892 6.74679C18.7867 6.74435 18.7817 6.74191 18.7792 6.74191L18.7767 6.73946C18.7742 6.73702 18.7717 6.73702 18.7692 6.73458C18.7567 6.72726 18.7466 6.71993 18.7341 6.71505C18.7341 6.71505 18.7341 6.71505 18.7316 6.71505C17.3778 5.98995 15.8964 5.53585 14.3624 5.36739C12.8559 5.20138 11.3094 5.33321 9.85046 5.74337C9.00464 5.98263 8.18384 6.31954 7.41058 6.73458C7.29547 6.79562 7.2254 6.92501 7.2254 7.04952V9.08566C7.11279 9.0295 7.00269 8.97579 6.89258 8.91964C6.13434 8.54122 5.3736 8.1628 4.61536 7.78439C4.33008 7.64278 4.0448 7.49874 3.75952 7.35714V9.8962C3.75952 10.1013 3.58685 10.2526 3.38416 10.2624C3.18146 10.2722 3.00879 10.0866 3.00879 9.8962V6.76388C3.00879 6.72482 3.01379 6.68819 3.02631 6.65401V6.65157C3.05133 6.56612 3.10638 6.49044 3.19397 6.4465C3.21399 6.43673 3.23651 6.42452 3.25653 6.41476C3.71698 6.18526 4.17743 5.95577 4.63538 5.72628C5.4812 5.30392 6.32703 4.884 7.17285 4.46163C8.10626 3.99532 9.03717 3.53146 9.97058 3.06515C10.7013 2.70138 11.4345 2.33517 12.1652 1.9714C12.3654 1.8713 12.5631 1.77364 12.7633 1.67355C12.9385 1.58566 13.0836 1.50997 13.2938 1.61007C13.6842 1.79317 14.0646 1.99337 14.4474 2.18624C15.2532 2.58907 16.0615 2.99191 16.8673 3.39474C17.8082 3.86349 18.7491 4.33468 19.6901 4.80343C20.4658 5.18917 21.2416 5.57735 22.0173 5.96554C22.3401 6.12667 22.663 6.2878 22.9883 6.44894C23.2335 6.56857 23.2335 6.95675 22.9883 7.07882Z" fill="#011368"/>
<path d="M16.129 6.45393C16.8597 6.65901 17.5354 6.92757 18.2036 7.27424V11.6199H8.95203C8.62921 11.6199 8.30139 11.6077 7.97607 11.6102V7.27424C10.476 5.98518 13.4189 5.68733 16.129 6.45393Z" fill="#011368"/>
<path d="M17.6934 15.238H5.56152V18.573H17.6934V15.238Z" fill="#011368"/>
<path d="M4.52794 19.4153C4.41283 19.4153 4.29521 19.4153 4.1801 19.4153C4.16008 19.4153 4.14006 19.4153 4.12004 19.4153C3.74468 19.4348 3.52947 19.7302 3.52947 20.0745V22.6355C3.52947 22.7258 3.52446 22.8162 3.53197 22.9041C3.55699 23.2263 3.82475 23.4558 4.15007 23.4656C4.24016 23.468 4.33025 23.4656 4.42034 23.4656H19.3224V19.4153H4.52794ZM6.73509 22.3254C6.24211 22.3254 5.82671 21.9202 5.82671 21.4392C5.82671 20.9656 6.20958 20.5994 6.67503 20.5554C6.69505 20.553 6.71507 20.5505 6.73509 20.5505C6.75762 20.5505 6.78014 20.5505 6.80266 20.5554C7.26561 20.6018 7.64348 20.968 7.64348 21.4368C7.64348 21.9226 7.22807 22.3254 6.73509 22.3254Z" fill="#011368"/>
<path d="M23.2584 19.9207C23.2009 19.6301 22.9706 19.425 22.6503 19.4153C22.6203 19.4153 22.5928 19.4153 22.5627 19.4153H20.0703V23.4656H21.9872C22.2374 23.4656 22.5002 23.49 22.7479 23.4558C23.0983 23.4094 23.2709 23.114 23.2709 22.7966V20.0085C23.2684 19.9792 23.2659 19.9475 23.2584 19.9207Z" fill="#011368"/>
<path d="M21.3767 16.7468V15.8313C21.3742 15.7996 21.3692 15.7703 21.3642 15.7434C21.3066 15.4529 21.0764 15.2502 20.7586 15.238C20.7311 15.238 20.7036 15.238 20.6785 15.238H18.4438V18.573H20.7161C21.0964 18.573 21.3717 18.3118 21.3767 17.9382C21.3817 17.5403 21.3767 17.1448 21.3767 16.7468Z" fill="#011368"/>
<path d="M3.16646 15.2381C2.94124 15.2381 2.71352 15.2283 2.4883 15.2381C2.12544 15.2528 1.88271 15.5213 1.8777 15.868C1.8752 16.0169 1.8777 16.1658 1.8777 16.3148V17.6966C1.8777 17.8016 1.8702 17.909 1.88021 18.0115C1.91023 18.3338 2.16548 18.5633 2.49581 18.5706C2.57839 18.5731 2.65846 18.5706 2.74105 18.5706H4.81056V15.2381H3.16646Z" fill="#011368"/>
</svg>
