<svg width="25" height="26" viewBox="0 0 25 26" fill="none" xmlns="http://www.w3.org/2000/svg">
<path d="M12.5047 13.3538C14.3586 13.3538 15.8615 11.8509 15.8615 9.99702C15.8615 8.14313 14.3586 6.64026 12.5047 6.64026C10.6508 6.64026 9.14795 8.14313 9.14795 9.99702C9.14795 11.8509 10.6508 13.3538 12.5047 13.3538Z" fill="#011368"/>
<path d="M14.9274 13.0203C14.3049 13.6428 13.2601 13.8651 12.5043 13.8651C11.7262 13.8651 10.6814 13.6428 10.0589 12.9981C7.90261 13.8206 6.27981 16.4438 5.85744 18.7557C5.72405 19.4449 6.21312 20.0228 6.90225 20.2451C8.2583 20.6675 10.4146 20.9121 12.5043 20.9121C15.2608 20.9121 17.017 20.6453 18.2397 20.2229C18.8176 20.0228 19.24 19.5338 19.1511 18.9336C18.7509 16.5549 17.1281 13.8651 14.9274 13.0203Z" fill="#011368"/>
<path d="M9.90346 12.6424C9.41439 12.1755 9.05871 11.5531 8.88087 10.864C8.50295 10.9973 8.12504 11.0418 7.79159 11.0418C7.16914 11.0418 6.34663 10.864 5.85756 10.3527C4.16807 10.9973 2.87872 13.087 2.52303 14.9098C2.41188 15.4656 2.81203 15.9102 3.34555 16.088C4.07915 16.3104 5.07951 16.466 6.16879 16.5549C6.94684 14.8876 8.25842 13.287 9.90346 12.6424Z" fill="#011368"/>
<path d="M7.76942 10.6417C8.1251 10.6417 8.48078 10.575 8.792 10.4416C8.76977 10.286 8.76977 10.1304 8.76977 9.97478C8.76977 8.77435 9.34776 7.68507 10.237 6.99594C9.83682 6.01781 8.88093 5.32867 7.76942 5.32867C6.30222 5.32867 5.12402 6.50687 5.12402 7.97407C5.12402 9.44126 6.30222 10.6417 7.76942 10.6417Z" fill="#011368"/>
<path d="M22.4859 15.0655C22.1747 13.1759 20.8853 11.0641 19.1514 10.3749C18.6623 10.864 17.8398 11.0418 17.2173 11.0418C16.8839 11.0418 16.4837 10.9974 16.1281 10.864C15.9502 11.5531 15.5945 12.1534 15.1055 12.6424C16.7505 13.3093 18.0621 14.8877 18.8401 16.5772C20.1295 16.4882 21.0632 16.3326 21.7745 16.0659C22.2414 15.9325 22.5748 15.5546 22.4859 15.0655Z" fill="#011368"/>
<path d="M16.2392 9.97483C16.2392 10.1304 16.2392 10.2861 16.2169 10.4417C16.5282 10.575 16.8838 10.6417 17.2395 10.6417C18.7067 10.6417 19.8849 9.46354 19.8849 7.99634C19.8849 6.52915 18.7067 5.35095 17.2395 5.35095C16.128 5.35095 15.1721 6.04009 14.772 7.01822C15.6612 7.68512 16.2392 8.75217 16.2392 9.97483Z" fill="#011368"/>
</svg>
