<svg width="25" height="25" viewBox="0 0 25 25" fill="none" xmlns="http://www.w3.org/2000/svg">
<g clip-path="url(#clip0_381_626)">
<path d="M21.764 22.4961L15.9453 24.9051C15.4533 25.1089 14.8813 24.977 14.5374 24.5806L13.5862 23.4842C13.4668 23.3465 13.3162 23.2372 13.1461 23.1647L7.46969 20.7444C6.73561 20.4807 6.3649 19.6725 6.68733 18.9565C6.96911 18.3309 7.72278 18.0388 8.3998 18.2323L11.0732 18.9962L7.27843 10.4327C6.97137 9.73983 7.34114 8.93098 8.10237 8.69556C8.76595 8.49033 9.47914 8.8493 9.75348 9.46846L11.9091 14.3331C11.6023 13.6402 11.9719 12.8315 12.733 12.5961C13.3966 12.3907 14.1099 12.7497 14.3842 13.3689L14.6044 13.8658C14.2973 13.1728 14.667 12.364 15.4282 12.1285C16.0919 11.9235 16.805 12.2824 17.0794 12.9014L17.2996 13.3984C16.9925 12.7053 17.3623 11.8966 18.1235 11.6613C18.7871 11.4562 19.5002 11.8149 19.7745 12.4339L20.3648 13.766C20.3756 13.7905 20.3848 13.8159 20.3921 13.8416L22.4564 21.107C22.6171 21.6721 22.3215 22.2653 21.764 22.4961ZM10.2402 3.74086C10.2402 1.67817 8.50403 0 6.37008 0C4.23614 0 2.5 1.67817 2.5 3.74086C2.5 5.80355 4.23614 7.48172 6.37008 7.48172C8.50403 7.48172 10.2402 5.80355 10.2402 3.74086ZM14.024 3.74086C14.024 1.67817 15.7602 0 17.8939 0C20.028 0 21.7642 1.67817 21.7642 3.74086C21.7642 5.80355 20.028 7.48172 17.8939 7.48172C15.7602 7.48172 14.024 5.80355 14.024 3.74086ZM14.9343 3.74086C14.9343 5.31835 16.2621 6.60182 17.8939 6.60182C19.5261 6.60182 20.8539 5.31835 20.8539 3.74086C20.8539 2.16337 19.5261 0.879899 17.8939 0.879899C16.2621 0.879899 14.9343 2.16337 14.9343 3.74086Z" fill="#011368"/>
</g>
<defs>
<clipPath id="clip0_381_626">
<rect width="25" height="25" fill="white"/>
</clipPath>
</defs>
</svg>
