<svg width="25" height="26" viewBox="0 0 25 26" fill="none" xmlns="http://www.w3.org/2000/svg">
<path d="M24.3248 19.7927L22.9998 16.9209C23.5748 15.9637 23.9248 14.8591 23.9248 13.6809C23.8998 10.1955 21.0248 7.37274 17.4748 7.37274C17.0998 7.37274 16.7248 7.39729 16.3498 7.47092C17.3248 8.91911 17.8998 10.6373 17.8998 12.5027C17.8998 15.2518 16.6498 17.7064 14.6748 19.3755C15.5248 19.7682 16.4498 19.9891 17.4498 19.9891C18.6498 19.9891 19.7748 19.67 20.7498 19.1055L23.6748 20.4064C24.0998 20.5782 24.4998 20.1855 24.3248 19.7927Z" fill="#011368"/>
<path d="M8.69996 5.09003C4.52496 5.09003 1.14996 8.40366 1.14996 12.5028C1.14996 13.9018 1.54996 15.2028 2.22496 16.3073L0.674962 19.67C0.474962 20.1364 0.949962 20.6028 1.39996 20.3818L4.82496 18.8355C5.94996 19.4982 7.27496 19.8909 8.69996 19.8909C12.875 19.9155 16.25 16.6018 16.25 12.5028C16.25 8.40366 12.875 5.09003 8.69996 5.09003ZM8.64996 17.0928C8.09996 17.0928 7.62496 16.6509 7.62496 16.0864C7.62496 15.5464 8.07496 15.08 8.64996 15.08C9.19996 15.08 9.67496 15.5218 9.67496 16.0864C9.64996 16.6509 9.19996 17.0928 8.64996 17.0928ZM9.89996 13.0428C9.42496 13.4355 9.42496 13.6318 9.42496 13.7055V14.0491C9.42496 14.2455 9.27496 14.3928 9.07496 14.3928H8.14996C7.94996 14.3928 7.79996 14.2455 7.79996 14.0491V13.7055C7.79996 13.0182 8.14996 12.4046 8.87496 11.8155C9.37496 11.3982 9.92496 10.9318 9.92496 10.4655C9.92496 9.77821 9.59996 9.48366 8.77496 9.48366C7.52496 9.48366 7.49996 10.3918 7.49996 10.4409V10.6128C7.49996 10.8091 7.34996 10.9564 7.14996 10.9564H6.22496C6.02496 10.9564 5.87496 10.8091 5.87496 10.6128V10.4409C5.87496 9.43457 6.64996 7.91275 8.74996 7.91275C10.8 7.91275 11.525 9.23821 11.525 10.49C11.525 11.7173 10.5 12.5518 9.89996 13.0428Z" fill="#011368"/>
</svg>
