<svg width="25" height="25" viewBox="0 0 25 25" fill="none" xmlns="http://www.w3.org/2000/svg">
<path d="M15.5072 3H10.574L9.625 7.35408H16.4564L15.5072 3Z" fill="#011368"/>
<path d="M7.81449 7.35408L8.76351 3H6.76768C5.95319 3 5.18049 3.36245 4.65732 3.98991L2.04391 7.12429C2.02609 7.20039 2.01143 7.27696 2 7.35408H7.66246H7.81449Z" fill="#011368"/>
<path d="M9.64209 8.96368L12.8538 21.1251C12.9786 21.1319 13.1034 21.1311 13.2281 21.1212L16.4388 8.96368H9.64209Z" fill="#011368"/>
<path d="M23.8127 9.20751C23.8257 9.12654 23.8354 9.04528 23.8413 8.96368H18.2068H18.0616L14.8867 20.9857C14.9969 20.9485 15.1055 20.9057 15.2112 20.8543L23.8127 9.20751Z" fill="#011368"/>
<path d="M18.2241 7.35408H23.8173C23.8469 7.29025 23.8332 7.31976 23.8628 7.25593L21.1397 3.98991C20.6165 3.36245 19.8438 3 19.0293 3H17.123L18.0723 7.35408H18.2241Z" fill="#011368"/>
<path d="M7.70396 8.96368H2C2.00673 9.05743 2.0188 9.15069 2.03493 9.24358L10.5969 20.8368C10.7367 20.9071 10.8818 20.9622 11.0296 21.0074L7.84897 8.96368H7.70396Z" fill="#011368"/>
</svg>
